<svg width="35" height="35" viewBox="0 0 35 35" fill="none" xmlns="http://www.w3.org/2000/svg">
<rect width="35" height="35" rx="3" fill="#2D303D"/>
<mask id="mask0_1_119" style="mask-type:alpha" maskUnits="userSpaceOnUse" x="7" y="7" width="21" height="21">
<path fill-rule="evenodd" clip-rule="evenodd" d="M25.6619 12.4993C25.6619 10.6595 24.1697 9.1673 22.3299 9.1673C19.5565 9.1673 15.1033 9.1673 12.3299 9.1673C10.4901 9.1673 8.99786 10.6595 8.99786 12.4993V24.9993C8.99786 25.3353 9.20099 25.64 9.51349 25.7689C9.82599 25.8978 10.1854 25.8275 10.4236 25.5892C10.4236 25.5892 12.0447 23.9681 13.0252 22.9876C13.3377 22.6751 13.7635 22.4993 14.2049 22.4993H22.3377C24.1776 22.4993 25.6697 21.0071 25.6697 19.1673V12.4993H25.6619ZM23.994 12.4993C23.994 11.5775 23.2479 10.8314 22.326 10.8314C19.5526 10.8314 15.0994 10.8314 12.326 10.8314C11.4041 10.8314 10.658 11.5775 10.658 12.4993V22.9876L11.8377 21.8079C12.4627 21.1829 13.3104 20.8314 14.1932 20.8314H22.326C23.2479 20.8314 23.994 20.0853 23.994 19.1634V12.4993Z" fill="black"/>
<path d="M18.9063 18.668L18.8008 19.1016C18.4805 19.2266 18.2266 19.3242 18.0391 19.3906C17.8477 19.457 17.6289 19.4883 17.3789 19.4883C16.9922 19.4883 16.6914 19.3945 16.4805 19.207C16.2656 19.0195 16.1602 18.7812 16.1602 18.4883C16.1602 18.375 16.168 18.2617 16.1836 18.1445C16.1992 18.0273 16.2266 17.8945 16.2617 17.7461L16.6602 16.3359C16.6953 16.1992 16.7266 16.0742 16.75 15.9531C16.7734 15.832 16.7852 15.7227 16.7852 15.6211C16.7852 15.4414 16.7461 15.3164 16.6719 15.2461C16.5977 15.1758 16.457 15.1406 16.2461 15.1406C16.1445 15.1406 16.0391 15.1562 15.9297 15.1875C15.8203 15.2188 15.7305 15.25 15.6523 15.2773L15.7578 14.8437C16.0195 14.7383 16.2695 14.6484 16.5078 14.5703C16.7461 14.4961 16.9727 14.457 17.1836 14.457C17.5664 14.457 17.8633 14.5508 18.0703 14.7344C18.2773 14.918 18.3828 15.1602 18.3828 15.457C18.3828 15.5195 18.375 15.625 18.3633 15.7812C18.3477 15.9375 18.3242 16.0781 18.2852 16.207L17.8906 17.6094C17.8594 17.7227 17.8281 17.8516 17.8047 17.9961C17.7773 18.1406 17.7656 18.25 17.7656 18.3242C17.7656 18.5117 17.8086 18.6367 17.8906 18.707C17.9727 18.7734 18.1172 18.8086 18.3242 18.8086C18.4219 18.8086 18.5313 18.793 18.6523 18.7578C18.7617 18.7227 18.8516 18.6953 18.9063 18.668ZM19.0078 12.7773C19.0078 13.0234 18.9141 13.2305 18.7305 13.4023C18.5469 13.5742 18.3242 13.6602 18.0625 13.6602C17.8008 13.6602 17.5781 13.5742 17.3906 13.4023C17.2031 13.2305 17.1094 13.0234 17.1094 12.7773C17.1094 12.5352 17.2031 12.3242 17.3906 12.1484C17.5781 11.9766 17.8008 11.8867 18.0625 11.8867C18.3242 11.8867 18.5469 11.9727 18.7305 12.1484C18.9141 12.3242 19.0078 12.5313 19.0078 12.7773Z" fill="black"/>
</mask>
<g mask="url(#mask0_1_119)">
<rect x="7.5" y="7.5" width="20" height="20" fill="#9197B1"/>
</g>
</svg>
