<svg width="36" height="33" viewBox="0 0 36 33" fill="none" xmlns="http://www.w3.org/2000/svg">
<mask id="mask0_1_81" style="mask-type:alpha" maskUnits="userSpaceOnUse" x="7" y="6" width="21" height="21">
<g clip-path="url(#clip0_1_81)">
<path d="M20.9544 12.6856C20.5832 9.2134 17.6362 6.5 14.0671 6.5C10.2475 6.5 7.14001 9.6075 7.14001 13.4271C7.14001 16.9962 9.85337 19.9432 13.3256 20.3144C13.6968 23.7866 16.6438 26.5 20.2129 26.5C24.0326 26.5 27.14 23.3925 27.14 19.5729C27.14 16.0038 24.4267 13.0568 20.9544 12.6856ZM8.70251 13.4271C8.70251 10.469 11.109 8.0625 14.0671 8.0625C16.7771 8.0625 19.0238 10.0825 19.3816 12.6959C16.2252 13.0751 13.7151 15.5852 13.3359 18.7416C10.7226 18.3838 8.70251 16.1371 8.70251 13.4271ZM20.2129 24.9375C17.2549 24.9375 14.8484 22.531 14.8484 19.5729C14.8484 16.6148 17.2549 14.2083 20.2129 14.2083C23.171 14.2083 25.5775 16.6148 25.5775 19.5729C25.5775 22.531 23.171 24.9375 20.2129 24.9375ZM20.9679 18.8088C20.5762 18.6703 20.0973 18.488 19.8482 18.2995C19.8159 18.204 19.8763 18.0061 20.0137 17.9646C20.3681 17.858 20.5937 18.0089 20.6461 18.0497L20.7306 18.1276C21.0477 18.4202 21.542 18.4002 21.8345 18.083C22.127 17.7659 22.1071 17.2716 21.7899 16.9791C21.7366 16.9371 21.5093 16.6684 20.9937 16.4911C20.9889 16.0638 20.6414 15.7187 20.2129 15.7187C19.7814 15.7187 19.4316 16.0685 19.4316 16.5V16.5143C18.1637 17.0087 17.8888 18.7486 18.8704 19.5186C19.2907 19.8482 19.8766 20.0803 20.4471 20.2819C20.5271 20.3102 20.7706 20.3963 20.7184 20.7066C20.6899 20.8762 20.5439 21.1637 20.1774 21.1661C19.7464 21.1692 19.6545 21.1548 19.3468 20.9535C18.9858 20.7173 18.5015 20.8185 18.2653 21.1796C18.0291 21.5407 18.1303 22.0249 18.4914 22.2611C18.8456 22.4928 19.1295 22.6133 19.433 22.6736C19.4477 23.0921 19.7908 23.427 20.2128 23.427C20.6443 23.427 20.9941 23.0773 20.9941 22.6458V22.5639C22.6424 21.8725 22.8013 19.4569 20.9679 18.8088ZM20.6343 18.0388L20.6438 18.0477C20.6374 18.0421 20.6343 18.0388 20.6343 18.0388ZM13.0831 15.1254C12.7779 15.4305 12.2833 15.4305 11.9782 15.1254C11.6731 14.8203 11.6731 14.3256 11.9782 14.0205L13.2859 12.7129V10.3542C13.2859 9.9227 13.6356 9.57293 14.0671 9.57293C14.4986 9.57293 14.8484 9.9227 14.8484 10.3542V13.0364C14.8484 13.2437 14.7661 13.4424 14.6195 13.5889L13.0831 15.1254Z" fill="black"/>
</g>
</mask>
<g mask="url(#mask0_1_81)">
<rect x="7.14001" y="6.5" width="20" height="20" fill="#9197B1"/>
</g>
<path d="M34.14 0V33H36.14V0H34.14Z" fill="#323643" mask="url(#path-1-inside-1_1_81)"/>
<defs>
<clipPath id="clip0_1_81">
<rect width="20" height="20" fill="white" transform="translate(7.14001 6.5)"/>
</clipPath>
</defs>
</svg>
