<svg width="36" height="33" viewBox="0 0 36 33" fill="none" xmlns="http://www.w3.org/2000/svg">
<mask id="mask0_1_13" style="mask-type:alpha" maskUnits="userSpaceOnUse" x="7" y="6" width="21" height="21">
<g clip-path="url(#clip0_1_13)">
<path d="M26.3588 9.46875C26.0044 9.46875 10.5143 9.46875 7.92126 9.46875C7.48978 9.46875 7.14001 9.81852 7.14001 10.25C7.14001 10.6815 7.48978 11.0312 7.92126 11.0312H8.54626V22.75C8.54626 23.1815 8.89603 23.5312 9.32751 23.5312H24.9525C25.384 23.5312 25.7338 23.1815 25.7338 22.75V11.0312H26.3588C26.7902 11.0312 27.14 10.6815 27.14 10.25C27.14 9.81852 26.7902 9.46875 26.3588 9.46875ZM24.1713 21.9688H10.1088V11.0312H24.1713V21.9688Z" fill="black"/>
<path d="M17.14 12.2031C16.7085 12.2031 16.3588 12.5529 16.3588 12.9844V20.0156C16.3588 20.4471 16.7085 20.7969 17.14 20.7969C17.5715 20.7969 17.9213 20.4471 17.9213 20.0156V12.9844C17.9213 12.5529 17.5715 12.2031 17.14 12.2031Z" fill="black"/>
<path d="M20.265 14.5469C19.8335 14.5469 19.4838 14.8966 19.4838 15.3281V20.0156C19.4838 20.4471 19.8335 20.7969 20.265 20.7969C20.6965 20.7969 21.0463 20.4471 21.0463 20.0156V15.3281C21.0463 14.8966 20.6965 14.5469 20.265 14.5469Z" fill="black"/>
<path d="M14.015 16.8906C13.5835 16.8906 13.2338 17.2404 13.2338 17.6719V20.0156C13.2338 20.4471 13.5835 20.7969 14.015 20.7969C14.4465 20.7969 14.7963 20.4471 14.7963 20.0156V17.6719C14.7963 17.2404 14.4465 16.8906 14.015 16.8906Z" fill="black"/>
</g>
</mask>
<g mask="url(#mask0_1_13)">
<rect x="7.14001" y="6.5" width="20" height="20" fill="#9197B1"/>
</g>
<path d="M34.14 0V33H36.14V0H34.14Z" fill="#323643" mask="url(#path-1-inside-1_1_13)"/>
<defs>
<clipPath id="clip0_1_13">
<rect width="20" height="20" fill="white" transform="translate(7.14001 6.5)"/>
</clipPath>
</defs>
</svg>
