<svg width="30" height="33" viewBox="0 0 30 33" fill="none" xmlns="http://www.w3.org/2000/svg">
<mask id="mask0_1_59" style="mask-type:alpha" maskUnits="userSpaceOnUse" x="4" y="6" width="21" height="21">
<g clip-path="url(#clip0_1_59)">
<path d="M22.2163 6.5H6.90378C5.61143 6.5 4.56003 7.55141 4.56003 8.84375V19.5469C4.56003 20.8392 5.61143 21.8906 6.90378 21.8906H9.2262C9.60741 24.505 11.8635 26.5 14.56 26.5C17.2553 26.5 19.5124 24.5061 19.8939 21.8906H22.2163C23.5086 21.8906 24.56 20.8392 24.56 19.5469V8.84375C24.56 7.55141 23.5086 6.5 22.2163 6.5ZM12.6627 24.4333C13.5728 23.0933 15.5468 23.0928 16.4574 24.4333C15.3072 25.0924 13.859 25.1188 12.6627 24.4333ZM13.8048 21.1094C13.8048 20.693 14.1436 20.3542 14.56 20.3542C14.9764 20.3542 15.3152 20.693 15.3152 21.1094C15.3152 21.5258 14.9764 21.8646 14.56 21.8646C14.1436 21.8646 13.8048 21.5258 13.8048 21.1094ZM17.6319 23.3911C17.3215 22.9824 16.9331 22.6416 16.493 22.3862C17.5041 20.8606 16.4114 18.7916 14.5601 18.7916C12.7081 18.7916 11.6164 20.8613 12.6271 22.3862C12.187 22.6416 11.7986 22.9824 11.4882 23.3911C9.62257 20.886 11.4108 17.2812 14.56 17.2812C17.7087 17.2812 19.4976 20.8858 17.6319 23.3911ZM22.9975 19.5469C22.9975 19.9777 22.6471 20.3281 22.2163 20.3281H19.8939C19.5142 17.7246 17.2671 15.7188 14.56 15.7188C11.853 15.7188 9.60585 17.7246 9.2262 20.3281H6.90378C6.473 20.3281 6.12253 19.9777 6.12253 19.5469V8.84375C6.12253 8.41297 6.473 8.0625 6.90378 8.0625H22.2163C22.6471 8.0625 22.9975 8.41297 22.9975 8.84375V19.5469ZM19.9507 10.3542C19.9507 10.7857 19.6009 11.1354 19.1694 11.1354H9.95065C9.51917 11.1354 9.1694 10.7857 9.1694 10.3542C9.1694 9.9227 9.51917 9.57293 9.95065 9.57293H19.1694C19.6009 9.57293 19.9507 9.9227 19.9507 10.3542ZM19.9507 13.4271C19.9507 13.8586 19.6009 14.2083 19.1694 14.2083H9.95065C9.51917 14.2083 9.1694 13.8586 9.1694 13.4271C9.1694 12.9956 9.51917 12.6458 9.95065 12.6458H19.1694C19.6009 12.6458 19.9507 12.9956 19.9507 13.4271Z" fill="black"/>
</g>
</mask>
<g mask="url(#mask0_1_59)">
<rect x="4.56003" y="6.5" width="20" height="20" fill="#9197B1"/>
</g>
<path d="M28.98 0V33H30.98V0H28.98Z" fill="#323643" mask="url(#path-1-inside-1_1_59)"/>
<defs>
<clipPath id="clip0_1_59">
<rect width="20" height="20" fill="white" transform="translate(4.56003 6.5)"/>
</clipPath>
</defs>
</svg>
