<svg width="36" height="33" viewBox="0 0 36 33" fill="none" xmlns="http://www.w3.org/2000/svg">
<mask id="mask0_1_70" style="mask-type:alpha" maskUnits="userSpaceOnUse" x="7" y="6" width="21" height="21">
<g clip-path="url(#clip0_1_70)">
<path d="M23.4708 12.5327C23.1163 12.1289 22.4703 12.1963 22.2053 12.661C21.7828 13.4017 21.0704 14.2527 19.9335 14.5972C20.6077 11.6085 19.6085 8.6444 17.6932 6.7288C17.3882 6.42371 16.8935 6.42371 16.5884 6.7288L11.1887 12.1285C7.89915 15.4181 7.8988 20.7427 11.1887 24.0327C14.4783 27.3222 19.8029 27.3227 23.0929 24.0327C26.2399 20.8856 26.3839 15.8505 23.4708 12.5327ZM15.705 24.341C14.9116 23.5476 14.9114 22.2632 15.7051 21.4696L17.1408 20.0338L18.5765 21.4696C19.37 22.263 19.3702 23.5474 18.5765 24.3411C17.7845 25.1331 16.4978 25.1338 15.705 24.341ZM20.5554 24.0251C20.9629 22.7784 20.6739 21.3574 19.6813 20.3648L17.6932 18.3767C17.3881 18.0717 16.8935 18.0717 16.5884 18.3767L14.6004 20.3648C13.609 21.3562 13.3183 22.7768 13.7262 24.025C9.80471 21.7738 9.11892 16.4078 12.2935 13.2333L17.1046 8.42215C18.5157 10.2477 19.0594 12.7356 18.1069 15.2594C17.9143 15.7698 18.2921 16.3164 18.8378 16.3164C20.4569 16.3164 21.8709 15.6369 22.9124 14.3797C25.0115 17.644 23.9757 22.0616 20.5554 24.0251Z" fill="black"/>
</g>
</mask>
<g mask="url(#mask0_1_70)">
<rect x="7.14001" y="6.5" width="20" height="20" fill="#9197B1"/>
</g>
<path d="M34.14 0V33H36.14V0H34.14Z" fill="#323643" mask="url(#path-1-inside-1_1_70)"/>
<defs>
<clipPath id="clip0_1_70">
<rect width="20" height="20" fill="white" transform="translate(7.14001 6.5)"/>
</clipPath>
</defs>
</svg>
