<svg width="11" height="11" viewBox="0 0 11 11" fill="none" xmlns="http://www.w3.org/2000/svg">
<mask id="mask0_1_1200" style="mask-type:alpha" maskUnits="userSpaceOnUse" x="0" y="0" width="11" height="11">
<g clip-path="url(#clip0_1_1200)">
<path d="M0.569001 11C0.424252 11 0.279364 10.945 0.169283 10.8341C-0.0517077 10.6131 -0.0517077 10.2547 0.169283 10.0337L10.0364 0.166579C10.2575 -0.0545499 10.6158 -0.0545499 10.8368 0.166579C11.0578 0.38757 11.0578 0.745852 10.8368 0.966843L0.969547 10.8341C0.858637 10.945 0.713888 11 0.569001 11Z" fill="black"/>
<path d="M10.4369 11C10.2922 11 10.1473 10.945 10.0372 10.8341L0.169283 0.966145C-0.0517077 0.745016 -0.0517077 0.386734 0.169283 0.165743C0.390274 -0.0552477 0.748556 -0.0552477 0.969547 0.165743L10.8368 10.0337C11.0578 10.2547 11.0578 10.6131 10.8368 10.8341C10.7259 10.945 10.5811 11 10.4369 11Z" fill="black"/>
</g>
</mask>
<g mask="url(#mask0_1_1200)">
<rect width="11" height="11" fill="#868BA1"/>
</g>
<defs>
<clipPath id="clip0_1_1200">
<rect width="11" height="11" fill="white"/>
</clipPath>
</defs>
</svg>
