<svg width="14" height="15" viewBox="0 0 14 15" fill="none" xmlns="http://www.w3.org/2000/svg">
<mask id="mask0_1_693" style="mask-type:alpha" maskUnits="userSpaceOnUse" x="0" y="0" width="14" height="15">
<path d="M13.4531 2.14508H10.7601V1.59375C10.7601 1.29171 10.5152 1.04688 10.2132 1.04688C9.91115 1.04688 9.66632 1.29171 9.66632 1.59375V2.14508H4.33368V1.59375C4.33368 1.29171 4.08885 1.04688 3.78681 1.04688C3.48477 1.04688 3.23993 1.29171 3.23993 1.59375V2.14508H0.546875C0.244836 2.14508 0 2.38995 0 2.69196V13.4062C0 13.7083 0.244836 13.9531 0.546875 13.9531H13.4531C13.7552 13.9531 14 13.7083 14 13.4062V2.69196C14 2.38995 13.7552 2.14508 13.4531 2.14508ZM12.9062 12.8594H1.09375V3.23883H3.23993V3.79019C3.23993 4.09223 3.48477 4.33707 3.78681 4.33707C4.08885 4.33707 4.33368 4.09223 4.33368 3.79019V3.23883H9.66629V3.79019C9.66629 4.09223 9.91113 4.33707 10.2132 4.33707C10.5152 4.33707 10.76 4.09223 10.76 3.79019V3.23883H12.9062V12.8594Z" fill="black"/>
<path d="M7 7.66272C7.40774 7.66272 7.73828 7.33218 7.73828 6.92444C7.73828 6.5167 7.40774 6.18616 7 6.18616C6.59226 6.18616 6.26172 6.5167 6.26172 6.92444C6.26172 7.33218 6.59226 7.66272 7 7.66272Z" fill="black"/>
<path d="M7 10.8759C7.40774 10.8759 7.73828 10.5453 7.73828 10.1376C7.73828 9.72983 7.40774 9.39929 7 9.39929C6.59226 9.39929 6.26172 9.72983 6.26172 10.1376C6.26172 10.5453 6.59226 10.8759 7 10.8759Z" fill="black"/>
<path d="M3.78687 7.66272C4.19461 7.66272 4.52515 7.33218 4.52515 6.92444C4.52515 6.5167 4.19461 6.18616 3.78687 6.18616C3.37912 6.18616 3.04858 6.5167 3.04858 6.92444C3.04858 7.33218 3.37912 7.66272 3.78687 7.66272Z" fill="black"/>
<path d="M10.2131 7.66272C10.6209 7.66272 10.9514 7.33218 10.9514 6.92444C10.9514 6.5167 10.6209 6.18616 10.2131 6.18616C9.80539 6.18616 9.47485 6.5167 9.47485 6.92444C9.47485 7.33218 9.80539 7.66272 10.2131 7.66272Z" fill="black"/>
<path d="M3.78687 10.8759C4.19461 10.8759 4.52515 10.5453 4.52515 10.1376C4.52515 9.72983 4.19461 9.39929 3.78687 9.39929C3.37912 9.39929 3.04858 9.72983 3.04858 10.1376C3.04858 10.5453 3.37912 10.8759 3.78687 10.8759Z" fill="black"/>
<path d="M10.2131 10.8759C10.6209 10.8759 10.9514 10.5453 10.9514 10.1376C10.9514 9.72983 10.6209 9.39929 10.2131 9.39929C9.80539 9.39929 9.47485 9.72983 9.47485 10.1376C9.47485 10.5453 9.80539 10.8759 10.2131 10.8759Z" fill="black"/>
</mask>
<g mask="url(#mask0_1_693)">
<rect y="0.5" width="14" height="14" fill="#9197B1"/>
</g>
</svg>
