<svg width="13" height="13" viewBox="0 0 13 13" fill="none" xmlns="http://www.w3.org/2000/svg">
<mask id="mask0_1_1022" style="mask-type:alpha" maskUnits="userSpaceOnUse" x="0" y="0" width="13" height="13">
<g clip-path="url(#clip0_1_1022)">
<path d="M6.38004 0.5C4.77734 0.5 3.27065 1.12411 2.13742 2.25735C-0.202 4.59673 -0.202 8.4032 2.13734 10.7426C3.27058 11.8759 4.77734 12.5 6.38004 12.5C7.98265 12.5 9.48942 11.8759 10.6227 10.7426C12.9621 8.4032 12.9621 4.59673 10.6227 2.25735C9.48942 1.12411 7.98265 0.5 6.38004 0.5ZM9.07989 9.19982C8.97334 9.30633 8.83378 9.3596 8.69418 9.3596C8.55462 9.3596 8.41498 9.30633 8.30854 9.19982L6.38004 7.27138L4.45156 9.19985C4.34502 9.30636 4.20545 9.35964 4.06585 9.35964C3.92629 9.35964 3.78665 9.30636 3.68022 9.19985C3.46716 8.98687 3.46716 8.64149 3.68022 8.42847L5.60865 6.5L3.68018 4.57153C3.46713 4.35855 3.46713 4.01316 3.68018 3.80015C3.89316 3.58716 4.23855 3.58716 4.45156 3.80015L6.38004 5.72862L8.30844 3.80015C8.52142 3.58716 8.8668 3.58716 9.07982 3.80015C9.29287 4.01313 9.29287 4.35851 9.07982 4.57153L7.15142 6.5L9.07989 8.42844C9.29291 8.64145 9.29291 8.98684 9.07989 9.19982Z" fill="black"/>
</g>
</mask>
<g mask="url(#mask0_1_1022)">
<rect x="0.380035" y="0.5" width="12" height="12" fill="#FF5858"/>
</g>
<defs>
<clipPath id="clip0_1_1022">
<rect width="12" height="12" fill="white" transform="translate(0.380035 0.5)"/>
</clipPath>
</defs>
</svg>
