<svg width="15" height="15" viewBox="0 0 15 15" fill="none" xmlns="http://www.w3.org/2000/svg">
<mask id="mask0_1_548" style="mask-type:alpha" maskUnits="userSpaceOnUse" x="0" y="0" width="15" height="15">
<path fill-rule="evenodd" clip-rule="evenodd" d="M3.12543 10.9915C2.88136 11.2356 2.8814 11.6313 3.1255 11.8754C3.3696 12.1195 3.76533 12.1195 4.00938 11.8753L7.50016 8.38395L10.9912 11.875C11.2353 12.1191 11.631 12.1191 11.8751 11.875C12.1192 11.631 12.1192 11.2352 11.8751 10.9911L8.38397 7.50001L11.8748 4.00852C12.1188 3.76442 12.1188 3.3687 11.8747 3.12464C11.6307 2.88058 11.2349 2.88062 10.9908 3.12472L7.50003 6.61614L4.00896 3.12502C3.76488 2.88094 3.36915 2.88094 3.12508 3.12502C2.881 3.3691 2.881 3.76482 3.12508 4.00891L6.61628 7.50008L3.12543 10.9915Z" fill="black"/>
</mask>
<g mask="url(#mask0_1_548)">
<rect width="15" height="15" fill="#9197B1"/>
</g>
</svg>
