<svg width="26" height="25" viewBox="0 0 26 25" fill="none" xmlns="http://www.w3.org/2000/svg">
<mask id="mask0_1_1673" style="mask-type:alpha" maskUnits="userSpaceOnUse" x="0" y="0" width="26" height="25">
<g clip-path="url(#clip0_1_1673)">
<path d="M11.5352 17.1875H1.47656C0.937207 17.1875 0.5 17.6247 0.5 18.1641V24.0234C0.5 24.5628 0.937207 25 1.47656 25H11.5352C12.0745 25 12.5117 24.5628 12.5117 24.0234V18.1641C12.5117 17.6247 12.0745 17.1875 11.5352 17.1875ZM10.5586 23.0469H2.45312V19.1406H10.5586V23.0469Z" fill="black"/>
<path d="M11.5352 0H1.47656C0.937207 0 0.5 0.437207 0.5 0.976562V15.2344C0.5 15.7737 0.937207 16.2109 1.47656 16.2109H11.5352C12.0745 16.2109 12.5117 15.7737 12.5117 15.2344V0.976562C12.5117 0.437207 12.0745 0 11.5352 0ZM10.5586 14.2578H2.45312V1.95312H10.5586V14.2578Z" fill="black"/>
<path d="M24.5234 0H14.4648C13.9255 0 13.4883 0.437207 13.4883 0.976562V6.83594C13.4883 7.37529 13.9255 7.8125 14.4648 7.8125H24.5234C25.0628 7.8125 25.5 7.37529 25.5 6.83594V0.976562C25.5 0.437207 25.0628 0 24.5234 0ZM23.5469 5.85938H15.4414V1.95312H23.5469V5.85938Z" fill="black"/>
<path d="M24.5234 8.78906H14.4648C13.9255 8.78906 13.4883 9.22627 13.4883 9.76562V24.0234C13.4883 24.5628 13.9255 25 14.4648 25H24.5234C25.0628 25 25.5 24.5628 25.5 24.0234V9.76562C25.5 9.22627 25.0628 8.78906 24.5234 8.78906ZM23.5469 23.0469H15.4414V10.7422H23.5469V23.0469Z" fill="black"/>
</g>
</mask>
<g mask="url(#mask0_1_1673)">
<rect x="0.5" width="25" height="25" fill="#9197B1"/>
</g>
<defs>
<clipPath id="clip0_1_1673">
<rect width="25" height="25" fill="white" transform="translate(0.5)"/>
</clipPath>
</defs>
</svg>
