<svg width="13" height="13" viewBox="0 0 13 13" fill="none" xmlns="http://www.w3.org/2000/svg">
<mask id="mask0_1_1165" style="mask-type:alpha" maskUnits="userSpaceOnUse" x="0" y="0" width="13" height="13">
<path d="M11.325 9.875H6.39676C6.22904 9.22991 5.64704 8.75 4.95001 8.75C4.25298 8.75 3.67098 9.22991 3.50326 9.875H1.57501C1.36773 9.875 1.20001 10.0429 1.20001 10.25C1.20001 10.4571 1.36773 10.625 1.57501 10.625H3.50326C3.67098 11.2701 4.25298 11.75 4.95001 11.75C5.64704 11.75 6.22904 11.2701 6.39676 10.625H11.325C11.5323 10.625 11.7 10.4571 11.7 10.25C11.7 10.0429 11.5323 9.875 11.325 9.875ZM4.95001 11C4.53657 11 4.20001 10.6636 4.20001 10.25C4.20001 9.83637 4.53657 9.5 4.95001 9.5C5.36345 9.5 5.70001 9.83637 5.70001 10.25C5.70001 10.6636 5.36345 11 4.95001 11ZM11.325 6.125H9.39676C9.22904 5.47991 8.64704 5 7.95001 5C7.25298 5 6.67098 5.47991 6.50326 6.125H1.57501C1.36773 6.125 1.20001 6.29291 1.20001 6.5C1.20001 6.70709 1.36773 6.875 1.57501 6.875H6.50326C6.67098 7.52009 7.25298 8 7.95001 8C8.64704 8 9.22904 7.52009 9.39676 6.875H11.325C11.5323 6.875 11.7 6.70709 11.7 6.5C11.7 6.29291 11.5323 6.125 11.325 6.125ZM7.95001 7.25C7.53657 7.25 7.20001 6.91363 7.20001 6.5C7.20001 6.08637 7.53657 5.75 7.95001 5.75C8.36345 5.75 8.70001 6.08637 8.70001 6.5C8.70001 6.91363 8.36345 7.25 7.95001 7.25ZM1.57501 3.125H3.50326C3.67098 3.77009 4.25298 4.25 4.95001 4.25C5.64704 4.25 6.22904 3.77009 6.39676 3.125H11.325C11.5323 3.125 11.7 2.95709 11.7 2.75C11.7 2.54291 11.5323 2.375 11.325 2.375H6.39676C6.22904 1.72991 5.64704 1.25 4.95001 1.25C4.25298 1.25 3.67098 1.72991 3.50326 2.375H1.57501C1.36773 2.375 1.20001 2.54291 1.20001 2.75C1.20001 2.95709 1.36773 3.125 1.57501 3.125ZM4.95001 2C5.36345 2 5.70001 2.33637 5.70001 2.75C5.70001 3.16363 5.36345 3.5 4.95001 3.5C4.53657 3.5 4.20001 3.16363 4.20001 2.75C4.20001 2.33637 4.53657 2 4.95001 2Z" fill="black"/>
</mask>
<g mask="url(#mask0_1_1165)">
<rect x="0.450012" y="0.5" width="12" height="12" fill="#9197B1"/>
</g>
</svg>
