<svg width="26" height="25" viewBox="0 0 26 25" fill="none" xmlns="http://www.w3.org/2000/svg">
<mask id="mask0_1_1702" style="mask-type:alpha" maskUnits="userSpaceOnUse" x="0" y="0" width="26" height="25">
<g clip-path="url(#clip0_1_1702)">
<path d="M24.5234 13.0859H15.9297C15.3903 13.0859 14.9531 13.5231 14.9531 14.0625C14.9531 15.1395 14.077 16.0156 13 16.0156C11.923 16.0156 11.0469 15.1395 11.0469 14.0625C11.0469 13.5231 10.6097 13.0859 10.0703 13.0859H1.47656C0.937207 13.0859 0.5 13.5231 0.5 14.0625V22.6562C0.5 23.1956 0.937207 23.6328 1.47656 23.6328H24.5234C25.0628 23.6328 25.5 23.1956 25.5 22.6562V14.0625C25.5 13.5231 25.0628 13.0859 24.5234 13.0859ZM23.5469 21.6797H2.45312V15.0391H9.21733C9.65205 16.722 11.1832 17.9688 13 17.9688C14.8168 17.9688 16.3479 16.722 16.7827 15.0391H23.5469V21.6797Z" fill="black"/>
<path d="M7.23828 3.32031H18.7617C19.3011 3.32031 19.7383 2.88311 19.7383 2.34375C19.7383 1.80439 19.3011 1.36719 18.7617 1.36719H7.23828C6.69893 1.36719 6.26172 1.80439 6.26172 2.34375C6.26172 2.88311 6.69893 3.32031 7.23828 3.32031Z" fill="black"/>
<path d="M7.23828 6.73828H18.7617C19.3011 6.73828 19.7383 6.30107 19.7383 5.76172C19.7383 5.22236 19.3011 4.78516 18.7617 4.78516H7.23828C6.69893 4.78516 6.26172 5.22236 6.26172 5.76172C6.26172 6.30107 6.69893 6.73828 7.23828 6.73828Z" fill="black"/>
<path d="M7.23828 10.1562H18.7617C19.3011 10.1562 19.7383 9.71904 19.7383 9.17969C19.7383 8.64033 19.3011 8.20312 18.7617 8.20312H7.23828C6.69893 8.20312 6.26172 8.64033 6.26172 9.17969C6.26172 9.71904 6.69893 10.1562 7.23828 10.1562Z" fill="black"/>
</g>
</mask>
<g mask="url(#mask0_1_1702)">
<rect x="0.5" width="25" height="25" fill="#9197B1"/>
</g>
<defs>
<clipPath id="clip0_1_1702">
<rect width="25" height="25" fill="white" transform="translate(0.5)"/>
</clipPath>
</defs>
</svg>
