<svg width="16" height="15" viewBox="0 0 16 15" fill="none" xmlns="http://www.w3.org/2000/svg">
<mask id="mask0_1_457" style="mask-type:alpha" maskUnits="userSpaceOnUse" x="0" y="0" width="16" height="15">
<g clip-path="url(#clip0_1_457)">
<path d="M12.6145 0H3.82544C3.50183 0 3.2395 0.262324 3.2395 0.585938V14.414C3.2395 14.6563 3.38859 14.8736 3.61465 14.9607C3.84064 15.0479 4.09702 14.987 4.25971 14.8074L8.21997 10.4355L12.1802 14.8074C12.3429 14.987 12.5992 15.0479 12.8253 14.9607C13.0513 14.8736 13.2004 14.6563 13.2004 14.414V0.585938C13.2004 0.262324 12.9381 0 12.6145 0ZM12.0286 12.8944L8.65424 9.16942C8.54314 9.04682 8.38541 8.97686 8.21997 8.97686C8.05453 8.97686 7.8968 9.04679 7.7857 9.16942L4.41138 12.8944V1.17188H12.0286V12.8944Z" fill="black"/>
</g>
</mask>
<g mask="url(#mask0_1_457)">
<rect x="0.719971" width="15" height="15" fill="#9197B1"/>
</g>
<defs>
<clipPath id="clip0_1_457">
<rect width="15" height="15" fill="white" transform="translate(0.719971)"/>
</clipPath>
</defs>
</svg>
