<svg width="21" height="21" viewBox="0 0 21 21" fill="none" xmlns="http://www.w3.org/2000/svg">
<mask id="mask0_1_1838" style="mask-type:alpha" maskUnits="userSpaceOnUse" x="0" y="0" width="21" height="21">
<g clip-path="url(#clip0_1_1838)">
<path d="M9.1535 8.83079H1.47119C1.03971 8.83079 0.689941 9.10172 0.689941 9.43595L0.689941 15.3866C0.689941 15.7209 1.03971 15.9918 1.47119 15.9918H9.1535C9.58498 15.9918 9.93475 15.7209 9.93475 15.3866L9.93475 9.43595C9.93475 9.10172 9.58494 8.83079 9.1535 8.83079ZM8.37225 14.7815H2.25244L2.25244 10.0411H8.37225L8.37225 14.7815ZM16.0676 8.83079C13.5188 8.83079 11.4452 10.437 11.4452 12.4113C11.4452 14.3856 13.5188 15.9918 16.0676 15.9918C18.6164 15.9918 20.6899 14.3856 20.6899 12.4113C20.6899 10.437 18.6163 8.83079 16.0676 8.83079ZM16.0676 14.7815C14.3803 14.7815 13.0077 13.7182 13.0077 12.4113C13.0077 11.1044 14.3803 10.0411 16.0676 10.0411C17.7548 10.0411 19.1274 11.1044 19.1274 12.4113C19.1274 13.7182 17.7548 14.7815 16.0676 14.7815ZM6.08057 7.66085H15.2993C15.9059 7.66085 16.2812 7.1471 15.9692 6.74434L11.3599 0.793653C11.0572 0.402935 10.3236 0.401785 10.02 0.793653L5.41064 6.74434C5.09857 7.14722 5.4742 7.66085 6.08057 7.66085ZM10.6899 2.28121L13.9195 6.45054H7.46041L10.6899 2.28121Z" fill="black"/>
</g>
</mask>
<g mask="url(#mask0_1_1838)">
<rect x="0.689941" y="0.5" width="20" height="20" fill="#9197B1"/>
</g>
<defs>
<clipPath id="clip0_1_1838">
<rect width="20" height="20" fill="white" transform="translate(0.689941 0.5) scale(1 0.774597)"/>
</clipPath>
</defs>
</svg>
