<svg width="16" height="15" viewBox="0 0 16 15" fill="none" xmlns="http://www.w3.org/2000/svg">
<mask id="mask0_1_768" style="mask-type:alpha" maskUnits="userSpaceOnUse" x="0" y="0" width="16" height="15">
<g clip-path="url(#clip0_1_768)">
<path d="M8.35784 0.576287C8.25096 0.488162 8.1094 0.4516 7.97253 0.476912L0.472527 1.88316C0.250339 1.92441 0.0900269 2.11754 0.0900269 2.34347V12.656C0.0900269 12.881 0.250339 13.075 0.472527 13.1163L7.97253 14.5225C8.00065 14.5282 8.03065 14.531 8.05878 14.531C8.16659 14.531 8.27346 14.4935 8.35784 14.4232C8.46565 14.3341 8.52753 14.201 8.52753 14.0622V0.937225C8.52753 0.797537 8.46565 0.66535 8.35784 0.576287ZM7.59003 13.4969L1.02753 12.2669V2.73254L7.59003 1.50254V13.4969Z" fill="black"/>
<path d="M14.6213 2.34344H8.05878C7.80003 2.34344 7.59003 2.55344 7.59003 2.81219C7.59003 3.07094 7.80003 3.28094 8.05878 3.28094H14.1525V11.7184H8.05878C7.80003 11.7184 7.59003 11.9284 7.59003 12.1872C7.59003 12.4459 7.80003 12.6559 8.05878 12.6559H14.6213C14.88 12.6559 15.09 12.4459 15.09 12.1872V2.81219C15.09 2.55344 14.88 2.34344 14.6213 2.34344Z" fill="black"/>
<path d="M9.93378 4.21844H8.05878C7.80003 4.21844 7.59003 4.42844 7.59003 4.68719C7.59003 4.94594 7.80003 5.15594 8.05878 5.15594H9.93378C10.1925 5.15594 10.4025 4.94594 10.4025 4.68719C10.4025 4.42844 10.1925 4.21844 9.93378 4.21844Z" fill="black"/>
<path d="M9.93378 6.09344H8.05878C7.80003 6.09344 7.59003 6.30344 7.59003 6.56219C7.59003 6.82094 7.80003 7.03094 8.05878 7.03094H9.93378C10.1925 7.03094 10.4025 6.82094 10.4025 6.56219C10.4025 6.30344 10.1925 6.09344 9.93378 6.09344Z" fill="black"/>
<path d="M9.93378 7.96844H8.05878C7.80003 7.96844 7.59003 8.17844 7.59003 8.43719C7.59003 8.69594 7.80003 8.90594 8.05878 8.90594H9.93378C10.1925 8.90594 10.4025 8.69594 10.4025 8.43719C10.4025 8.17844 10.1925 7.96844 9.93378 7.96844Z" fill="black"/>
<path d="M9.93378 9.84344H8.05878C7.80003 9.84344 7.59003 10.0534 7.59003 10.3122C7.59003 10.5709 7.80003 10.7809 8.05878 10.7809H9.93378C10.1925 10.7809 10.4025 10.5709 10.4025 10.3122C10.4025 10.0534 10.1925 9.84344 9.93378 9.84344Z" fill="black"/>
<path d="M12.7463 4.21844H11.8088C11.55 4.21844 11.34 4.42844 11.34 4.68719C11.34 4.94594 11.55 5.15594 11.8088 5.15594H12.7463C13.005 5.15594 13.215 4.94594 13.215 4.68719C13.215 4.42844 13.005 4.21844 12.7463 4.21844Z" fill="black"/>
<path d="M12.7463 6.09344H11.8088C11.55 6.09344 11.34 6.30344 11.34 6.56219C11.34 6.82094 11.55 7.03094 11.8088 7.03094H12.7463C13.005 7.03094 13.215 6.82094 13.215 6.56219C13.215 6.30344 13.005 6.09344 12.7463 6.09344Z" fill="black"/>
<path d="M12.7463 7.96844H11.8088C11.55 7.96844 11.34 8.17844 11.34 8.43719C11.34 8.69594 11.55 8.90594 11.8088 8.90594H12.7463C13.005 8.90594 13.215 8.69594 13.215 8.43719C13.215 8.17844 13.005 7.96844 12.7463 7.96844Z" fill="black"/>
<path d="M12.7463 9.84344H11.8088C11.55 9.84344 11.34 10.0534 11.34 10.3122C11.34 10.5709 11.55 10.7809 11.8088 10.7809H12.7463C13.005 10.7809 13.215 10.5709 13.215 10.3122C13.215 10.0534 13.005 9.84344 12.7463 9.84344Z" fill="black"/>
<path d="M6.53721 9.06626L3.25596 5.31626C3.08346 5.12032 2.78814 5.10157 2.59408 5.2722C2.39908 5.44282 2.37939 5.73907 2.55002 5.93314L5.83127 9.68314C5.92408 9.78907 6.05346 9.84345 6.18377 9.84345C6.29346 9.84345 6.40314 9.80501 6.49314 9.7272C6.68814 9.55657 6.70783 9.26126 6.53721 9.06626Z" fill="black"/>
<path d="M6.4716 4.78657C6.26723 4.62626 5.97285 4.6647 5.81348 4.86814L2.53223 9.08689C2.37379 9.29126 2.41035 9.58657 2.61473 9.74501C2.70098 9.81157 2.80223 9.84345 2.90254 9.84345C3.04129 9.84345 3.18004 9.78157 3.27192 9.66345L6.55317 5.4447C6.71254 5.23939 6.67598 4.94501 6.4716 4.78657Z" fill="black"/>
</g>
</mask>
<g mask="url(#mask0_1_768)">
<rect x="0.0900269" width="15" height="15" fill="#9197B1"/>
</g>
<defs>
<clipPath id="clip0_1_768">
<rect width="15" height="15" fill="white" transform="translate(0.0900269)"/>
</clipPath>
</defs>
</svg>
