<svg width="20" height="21" viewBox="0 0 20 21" fill="none" xmlns="http://www.w3.org/2000/svg">
<mask id="mask0_1_1899" style="mask-type:alpha" maskUnits="userSpaceOnUse" x="0" y="0" width="20" height="21">
<g clip-path="url(#clip0_1_1899)">
<path d="M20 10.5C20 5.0047 15.5693 0.529755 10.0542 0.50061C10.0391 0.499847 10.0238 0.5 10.0087 0.500153C10.0058 0.500153 10.0029 0.5 10 0.5C4.47327 0.5 0 4.9725 0 10.5C0 16.0293 4.48364 20.5 10 20.5C15.5403 20.5 20 16.0054 20 10.5ZM16.2384 16.0086C15.3401 16.0086 14.469 15.8906 13.6389 15.6704C15.0557 14.496 16.1235 13.0645 16.8307 11.5233C17.3128 11.7033 17.8067 11.8521 18.3095 11.967C18.0408 13.4935 17.3605 14.8797 16.3875 16.0069C16.3377 16.0075 16.288 16.0086 16.2384 16.0086ZM6.56433 2.79431C7.4147 2.4136 8.33908 2.16992 9.30923 2.09088C9.58801 4.18942 10.4395 6.18832 11.7603 7.84711C10.3568 8.90607 8.65494 9.56967 6.84494 9.69617C5.93948 7.48578 5.85602 5.02988 6.56433 2.79431ZM16.147 4.72668C16.2668 5.35458 16.3281 5.99805 16.3281 6.64258C16.3281 7.59427 16.1961 8.51575 15.95 9.38992C15.2429 8.98846 14.5885 8.50476 13.9993 7.95224C14.8982 7.01016 15.6255 5.90833 16.1354 4.71432C16.1392 4.71829 16.143 4.72256 16.147 4.72668ZM17.8633 7.44077C18.2213 8.35751 18.4229 9.35178 18.4361 10.3906C18.0782 10.3001 17.7277 10.1899 17.386 10.0619C17.6427 9.21674 17.8033 8.33859 17.8633 7.44077ZM12.9375 6.79181C11.8852 5.45026 11.1621 3.84503 10.8907 2.1095C12.3689 2.26529 13.7347 2.80408 14.8863 3.625C14.4547 4.82114 13.7834 5.89307 12.9375 6.79181ZM12.8261 9.01318C13.598 9.75034 14.4664 10.377 15.4012 10.8772C14.6259 12.5584 13.4041 13.9927 11.8886 15.0276C10.1208 14.1852 8.63373 12.8462 7.60834 11.192C9.51187 10.9477 11.2961 10.2041 12.8261 9.01318ZM4.68506 3.95215C4.37775 5.82394 4.52072 7.79706 5.15656 9.65833C3.97171 9.52298 2.82639 9.15982 1.78146 8.58655C2.21252 6.73428 3.25577 5.11456 4.68506 3.95215ZM1.56723 10.2318C2.90268 10.8696 4.35883 11.2257 5.85022 11.2751C6.86203 13.2113 8.40897 14.8314 10.2574 15.9333C8.27423 16.8068 6.13861 16.9857 4.16412 16.588C2.48016 14.9731 1.48972 12.6994 1.56723 10.2318ZM6.86096 18.3316C8.70041 18.2271 10.4597 17.6988 12.0259 16.7936C12.8946 17.1281 13.8046 17.3575 14.7406 17.4763C12.3732 19.0901 9.40765 19.356 6.86096 18.3316Z" fill="black"/>
</g>
</mask>
<g mask="url(#mask0_1_1899)">
<rect y="0.5" width="20" height="20" fill="#868BA1"/>
</g>
<defs>
<clipPath id="clip0_1_1899">
<rect width="20" height="20" fill="white" transform="translate(0 0.5)"/>
</clipPath>
</defs>
</svg>
