<svg width="16" height="15" viewBox="0 0 16 15" fill="none" xmlns="http://www.w3.org/2000/svg">
<mask id="mask0_1_482" style="mask-type:alpha" maskUnits="userSpaceOnUse" x="0" y="0" width="16" height="15">
<g clip-path="url(#clip0_1_482)">
<path d="M14.7159 2.31618H11.5603V1.57782C11.5603 0.707721 10.8526 0 9.98246 0H6.47755C5.60746 0 4.89974 0.707721 4.89974 1.57782V2.31618H1.7441C1.44079 2.31618 1.19263 2.56434 1.19263 2.86765C1.19263 3.17096 1.44079 3.41912 1.7441 3.41912H2.58356V13.076C2.58356 14.136 3.44447 15 4.50758 15H11.9555C13.0155 15 13.8795 14.1391 13.8795 13.076V5.18382C13.8795 4.88051 13.6314 4.63235 13.328 4.63235C13.0247 4.63235 12.7766 4.88051 12.7766 5.18382V13.076C12.7766 13.5294 12.4089 13.8971 11.9555 13.8971H4.50451C4.05108 13.8971 3.68344 13.5294 3.68344 13.076V3.41912H14.7128C15.0192 3.41912 15.2674 3.17096 15.2674 2.86765C15.2674 2.56434 15.0192 2.31618 14.7159 2.31618ZM10.4604 2.31618H6.00268V1.57782C6.00268 1.3174 6.21407 1.10294 6.47755 1.10294H9.98552C10.2459 1.10294 10.4604 1.31434 10.4604 1.57782V2.31618Z" fill="black"/>
<path d="M8.23 4.63235C7.92669 4.63235 7.67853 4.88052 7.67853 5.18383V12.1324C7.67853 12.4357 7.92669 12.6838 8.23 12.6838C8.53331 12.6838 8.78147 12.4357 8.78147 12.1324V5.18383C8.78147 4.88052 8.53331 4.63235 8.23 4.63235Z" fill="black"/>
<path d="M5.91378 4.63235C5.61047 4.63235 5.3623 4.88052 5.3623 5.18383V12.1324C5.3623 12.4357 5.61047 12.6838 5.91378 12.6838C6.21708 12.6838 6.46525 12.4357 6.46525 12.1324V5.18383C6.46525 4.88052 6.21708 4.63235 5.91378 4.63235Z" fill="black"/>
<path d="M10.5462 4.63235C10.2429 4.63235 9.99469 4.88052 9.99469 5.18383V12.1324C9.99469 12.4357 10.2429 12.6838 10.5462 12.6838C10.8495 12.6838 11.0976 12.4357 11.0976 12.1324V5.18383C11.0976 4.88052 10.8495 4.63235 10.5462 4.63235Z" fill="black"/>
</g>
</mask>
<g mask="url(#mask0_1_482)">
<rect x="0.72998" width="15" height="15" fill="#9197B1"/>
</g>
<defs>
<clipPath id="clip0_1_482">
<rect width="15" height="15" fill="white" transform="translate(0.72998)"/>
</clipPath>
</defs>
</svg>
