<svg width="16" height="15" viewBox="0 0 16 15" fill="none" xmlns="http://www.w3.org/2000/svg">
<mask id="mask0_1_826" style="mask-type:alpha" maskUnits="userSpaceOnUse" x="0" y="0" width="16" height="15">
<g clip-path="url(#clip0_1_826)">
<path d="M11.2189 6.44531C11.2189 6.12305 10.9552 5.85938 10.6329 5.85938H4.59778C4.27551 5.85938 4.01184 6.12305 4.01184 6.44531C4.01184 6.76758 4.27551 7.03125 4.59778 7.03125H10.6329C10.9552 7.03125 11.2189 6.76758 11.2189 6.44531Z" fill="#9CA0AE"/>
<path d="M6.5929 13.8281H4.01477C3.36731 13.8281 2.8429 13.3037 2.8429 12.6562V2.34375C2.8429 1.69629 3.36731 1.17188 4.01477 1.17188H11.2189C11.8663 1.17188 12.3907 1.69629 12.3907 2.34375V7.93945C12.3907 8.26172 12.6544 8.52539 12.9767 8.52539C13.299 8.52539 13.5626 8.26172 13.5626 7.93945V2.34375C13.5626 1.05176 12.5109 0 11.2189 0H4.01477C2.72278 0 1.67102 1.05176 1.67102 2.34375V12.6562C1.67102 13.9482 2.72278 15 4.01477 15H6.5929C6.91516 15 7.17883 14.7363 7.17883 14.4141C7.17883 14.0918 6.91516 13.8281 6.5929 13.8281Z" fill="#9CA0AE"/>
<path d="M4.59778 8.20312C4.27551 8.20312 4.01184 8.4668 4.01184 8.78906C4.01184 9.11133 4.27551 9.375 4.59778 9.375H7.67688C7.99915 9.375 8.26282 9.11133 8.26282 8.78906C8.26282 8.4668 7.99915 8.20312 7.67688 8.20312H4.59778Z" fill="#9CA0AE"/>
<path d="M10.6329 3.51562H4.59778C4.27551 3.51562 4.01184 3.7793 4.01184 4.10156C4.01184 4.42383 4.27551 4.6875 4.59778 4.6875H10.6329C10.9552 4.6875 11.2189 4.42383 11.2189 4.10156C11.2189 3.7793 10.9552 3.51562 10.6329 3.51562Z" fill="#9CA0AE"/>
<path d="M15.0128 11.8213C14.9923 11.792 14.922 11.6924 14.8781 11.6367C14.6818 11.3906 14.2218 10.8135 13.5831 10.3008C12.7628 9.64746 11.9191 9.31641 11.0753 9.31641C10.2316 9.31641 9.38782 9.64746 8.5675 10.3008C7.92883 10.8105 7.46887 11.3877 7.27258 11.6367C7.22864 11.6924 7.15833 11.792 7.13782 11.8213C6.99719 12.0234 6.99719 12.293 7.13782 12.4951C7.15833 12.5244 7.22864 12.624 7.27258 12.6797C7.46887 12.9258 7.92883 13.5029 8.5675 14.0156C9.38782 14.6689 10.2316 15 11.0753 15C11.9191 15 12.7628 14.6689 13.5831 14.0156C14.2218 13.5059 14.6818 12.9287 14.8781 12.6797C14.922 12.624 14.9923 12.5244 15.0128 12.4951C15.1534 12.293 15.1534 12.0234 15.0128 11.8213ZM11.0753 13.8281C10.2052 13.8281 9.29407 13.2656 8.36243 12.1582C9.29407 11.0508 10.2052 10.4883 11.0753 10.4883C11.9454 10.4883 12.8566 11.0508 13.7882 12.1582C12.8566 13.2656 11.9454 13.8281 11.0753 13.8281Z" fill="#8069F2"/>
<path d="M11.1046 13.2715C11.7195 13.2715 12.2179 12.7731 12.2179 12.1582C12.2179 11.5434 11.7195 11.0449 11.1046 11.0449C10.4898 11.0449 9.99133 11.5434 9.99133 12.1582C9.99133 12.7731 10.4898 13.2715 11.1046 13.2715Z" fill="#8069F2"/>
</g>
</mask>
<g mask="url(#mask0_1_826)">
<rect x="0.880005" width="15" height="15" fill="#9197B1"/>
</g>
<defs>
<clipPath id="clip0_1_826">
<rect width="15" height="15" fill="white" transform="translate(0.880005)"/>
</clipPath>
</defs>
</svg>
