<svg width="21" height="21" viewBox="0 0 21 21" fill="none" xmlns="http://www.w3.org/2000/svg">
<mask id="mask0_1_1815" style="mask-type:alpha" maskUnits="userSpaceOnUse" x="0" y="0" width="21" height="21">
<g clip-path="url(#clip0_1_1815)">
<path d="M20.161 14.6107L15.401 10.7759C16.6249 9.64896 17.2954 8.23101 17.2954 6.75486C17.2954 3.30599 13.6729 0.5 9.22044 0.5C4.76796 0.5 1.14545 3.30599 1.14545 6.75486C1.14545 10.2037 4.76796 13.0097 9.22044 13.0097C10.892 13.0097 12.4848 12.6192 13.8467 11.8779L18.6429 15.7417C18.8434 15.903 19.113 15.9919 19.402 15.9919C19.6754 15.9919 19.9349 15.9112 20.1319 15.7643C20.5504 15.4524 20.5637 14.9351 20.161 14.6107ZM9.22044 2.1317C12.5115 2.1317 15.1889 4.2056 15.1889 6.75486C15.1889 9.30413 12.5115 11.378 9.22044 11.378C5.92935 11.378 3.25197 9.30413 3.25197 6.75486C3.25197 4.2056 5.92935 2.1317 9.22044 2.1317Z" fill="black"/>
</g>
</mask>
<g mask="url(#mask0_1_1815)">
<rect x="0.799988" y="0.5" width="20" height="20" fill="white"/>
</g>
<defs>
<clipPath id="clip0_1_1815">
<rect width="20" height="20" fill="white" transform="translate(0.799988 0.5) scale(1 0.774597)"/>
</clipPath>
</defs>
</svg>
