<svg width="21" height="21" viewBox="0 0 21 21" fill="none" xmlns="http://www.w3.org/2000/svg">
<mask id="mask0_1_1846" style="mask-type:alpha" maskUnits="userSpaceOnUse" x="0" y="0" width="21" height="21">
<g clip-path="url(#clip0_1_1846)">
<path d="M15.8845 7.64081C15.8845 7.97504 15.5348 8.24597 15.1033 8.24597H5.93664C5.50515 8.24597 5.15539 7.97504 5.15539 7.64081C5.15539 7.30659 5.50515 7.03566 5.93664 7.03566H15.1033C15.5348 7.03566 15.8845 7.30659 15.8845 7.64081ZM15.1033 10.0211H5.93664C5.50515 10.0211 5.15539 10.292 5.15539 10.6263C5.15539 10.9605 5.50515 11.2314 5.93664 11.2314H15.1033C15.5348 11.2314 15.8845 10.9605 15.8845 10.6263C15.8845 10.292 15.5348 10.0211 15.1033 10.0211ZM20.52 2.89036L20.52 15.3868C20.52 15.721 20.1702 15.9919 19.7387 15.9919H1.30121C0.869724 15.9919 0.519958 15.721 0.519958 15.3868L0.519958 2.89036C0.519958 2.55613 0.869724 2.2852 1.30121 2.2852H10.6271C10.974 1.25926 12.1809 0.5 13.6126 0.5C15.0444 0.5 16.2512 1.25926 16.5981 2.2852H19.7387C20.1702 2.2852 20.52 2.55613 20.52 2.89036ZM12.0892 2.89036C12.0892 3.54105 12.7726 4.07041 13.6126 4.07041C14.4527 4.07041 15.1361 3.54105 15.1361 2.89036C15.1361 2.23967 14.4527 1.71031 13.6126 1.71031C12.7726 1.71031 12.0892 2.23967 12.0892 2.89036ZM18.9575 3.49551H16.5981C16.0817 5.0231 13.8148 5.7531 12.0551 4.95263L11.0724 5.71382C10.7673 5.95017 10.2726 5.95011 9.96754 5.71382C9.66246 5.47748 9.66246 5.0943 9.96754 4.85799L10.9502 4.09679C10.8092 3.9108 10.6993 3.70907 10.6271 3.49551H2.08246L2.08246 14.7816H18.9575L18.9575 3.49551Z" fill="black"/>
</g>
</mask>
<g mask="url(#mask0_1_1846)">
<rect x="0.519958" y="0.5" width="20" height="20" fill="#9197B1"/>
</g>
<defs>
<clipPath id="clip0_1_1846">
<rect width="20" height="20" fill="white" transform="translate(0.519958 0.5) scale(1 0.774597)"/>
</clipPath>
</defs>
</svg>
