<svg width="23" height="23" viewBox="0 0 23 23" fill="none" xmlns="http://www.w3.org/2000/svg">
<mask id="mask0_1_1854" style="mask-type:alpha" maskUnits="userSpaceOnUse" x="0" y="0" width="23" height="23">
<g clip-path="url(#clip0_1_1854)">
<path d="M3.0322 12.2468C2.55753 12.2468 2.17282 12.5448 2.17282 12.9125L2.17282 15.2166C2.17282 15.5842 2.55753 15.8823 3.0322 15.8823C3.50687 15.8823 3.89157 15.5842 3.89157 15.2166L3.89157 12.9125C3.89157 12.5448 3.50687 12.2468 3.0322 12.2468Z" fill="black"/>
<path d="M8.70407 8.86052C8.2294 8.86052 7.8447 9.15851 7.8447 9.52619L7.8447 15.2165C7.8447 15.5842 8.2294 15.8822 8.70407 15.8822C9.17874 15.8822 9.56345 15.5842 9.56345 15.2165L9.56345 9.52619C9.56345 9.15851 9.17874 8.86052 8.70407 8.86052Z" fill="black"/>
<path d="M14.3759 11.1091C13.9013 11.1091 13.5166 11.4071 13.5166 11.7748L13.5166 15.2165C13.5166 15.5842 13.9013 15.8822 14.3759 15.8822C14.8506 15.8822 15.2353 15.5842 15.2353 15.2165L15.2353 11.7748C15.2353 11.4071 14.8506 11.1091 14.3759 11.1091Z" fill="black"/>
<path d="M20.0478 7.275C19.5732 7.275 19.1884 7.57312 19.1884 7.94067L19.1884 15.2165C19.1884 15.5842 19.5732 15.8822 20.0478 15.8822C20.5225 15.8822 20.9072 15.5842 20.9072 15.2165L20.9072 7.94067C20.9072 7.57312 20.5225 7.275 20.0478 7.275Z" fill="black"/>
<path d="M20.0478 2.16417C18.6737 2.16417 17.5556 3.03019 17.5556 4.09461C17.5556 4.33761 17.6144 4.56994 17.7206 4.7842L15.5729 6.23606C15.2175 6.0846 14.8095 5.99827 14.3759 5.99827C13.7245 5.99827 13.131 6.19303 12.6866 6.51104L11.1775 5.91285C11.1894 5.8364 11.1963 5.75891 11.1963 5.67999C11.1963 4.61557 10.0782 3.74955 8.70407 3.74955C7.32991 3.74955 6.21188 4.61557 6.21188 5.67999C6.21188 5.88165 6.25217 6.07615 6.32652 6.25894L4.35936 7.43349C3.97466 7.24536 3.51979 7.13589 3.0322 7.13589C1.65804 7.13589 0.540008 8.00191 0.540008 9.06633C0.540008 10.1307 1.65804 10.9968 3.0322 10.9968C4.40636 10.9968 5.52438 10.1307 5.52438 9.06633C5.52438 8.86468 5.4841 8.67018 5.40974 8.48738L7.37691 7.31283C7.76161 7.50096 8.21648 7.61044 8.70407 7.61044C9.35548 7.61044 9.94899 7.41568 10.3934 7.09753L11.9026 7.69585C11.8906 7.77217 11.8838 7.84979 11.8838 7.92871C11.8838 8.99313 13.0018 9.85915 14.3759 9.85915C15.7501 9.85915 16.8681 8.99313 16.8681 7.92871C16.8681 7.68571 16.8094 7.45338 16.7031 7.23912L18.8509 5.78726C19.2064 5.93872 19.6143 6.02505 20.0478 6.02505C21.422 6.02505 22.54 5.15903 22.54 4.09461C22.54 3.03019 21.422 2.16417 20.0478 2.16417ZM3.0322 9.66543C2.6057 9.66543 2.25876 9.39669 2.25876 9.06633C2.25876 8.73596 2.6057 8.46722 3.0322 8.46722C3.45869 8.46722 3.80563 8.73596 3.80563 9.06633C3.80563 9.39669 3.45869 9.66543 3.0322 9.66543ZM8.70407 6.2791C8.27757 6.2791 7.93063 6.01036 7.93063 5.67999C7.93063 5.34963 8.27757 5.08089 8.70407 5.08089C9.13057 5.08089 9.47751 5.34963 9.47751 5.67999C9.47751 6.01036 9.13057 6.2791 8.70407 6.2791ZM14.3759 8.52781C13.9494 8.52781 13.6025 8.25894 13.6025 7.92871C13.6025 7.59834 13.9494 7.32961 14.3759 7.32961C14.8024 7.32961 15.1494 7.59834 15.1494 7.92871C15.1494 8.25894 14.8024 8.52781 14.3759 8.52781ZM20.0478 4.69371C19.6213 4.69371 19.2744 4.42497 19.2744 4.09461C19.2744 3.76425 19.6213 3.49551 20.0478 3.49551C20.4743 3.49551 20.8213 3.76425 20.8213 4.09461C20.8213 4.42497 20.4743 4.69371 20.0478 4.69371Z" fill="black"/>
</g>
</mask>
<g mask="url(#mask0_1_1854)">
<rect x="0.540009" y="0.5" width="22" height="22" fill="#9197B1"/>
</g>
<defs>
<clipPath id="clip0_1_1854">
<rect width="22" height="22" fill="white" transform="translate(0.540009 0.5) scale(1 0.774597)"/>
</clipPath>
</defs>
</svg>
