<svg width="26" height="25" viewBox="0 0 26 25" fill="none" xmlns="http://www.w3.org/2000/svg">
<mask id="mask0_1_1785" style="mask-type:alpha" maskUnits="userSpaceOnUse" x="0" y="0" width="26" height="25">
<g clip-path="url(#clip0_1_1785)">
<path d="M2.04 2.65497C2.2525 2.71497 2.635 2.42997 2.635 2.20247V17.2975C2.635 17.57 2.965 18.0725 3.2175 18.18L12.96 22.355C12.935 22.345 12.8625 22.3325 12.7525 22.3475L13 22.315L13.2475 22.3475C13.1375 22.3325 13.065 22.345 13.04 22.355L22.7825 18.18C23.035 18.0725 23.365 17.5675 23.365 17.2975V2.20247C23.365 2.42997 23.7475 2.71497 23.96 2.65497L13.5175 5.63747L13 5.78497L12.4825 5.63747L2.04 2.65497ZM2.5575 0.842471L13 3.82747L23.4425 0.842471C24.425 0.562471 25.25 1.16747 25.25 2.20247V17.2975C25.25 18.315 24.4775 19.505 23.525 19.9125L13.7825 24.0875C13.5025 24.2075 13.235 24.2475 13 24.215C12.765 24.245 12.4975 24.2075 12.2175 24.0875L2.475 19.9125C1.5225 19.505 0.75 18.315 0.75 17.2975V2.20247C0.75 1.16747 1.575 0.562471 2.5575 0.842471Z" fill="black"/>
<path d="M7.34501 13.52L5.13001 14.685L5.55251 12.2175L3.76001 10.47L6.23751 10.11L7.34501 7.86498L8.45251 10.11L10.93 10.47L9.13751 12.2175L9.56001 14.685L7.34501 13.52ZM16.1275 10.6525L21.755 8.75748C22.2475 8.59248 22.5125 8.05748 22.3475 7.56248C22.1825 7.06998 21.6475 6.80498 21.1525 6.96998L15.525 8.86748C15.0325 9.03248 14.7675 9.56748 14.9325 10.0625C15.1 10.555 15.635 10.82 16.1275 10.6525ZM16.1275 14.4225L21.755 12.5275C22.2475 12.3625 22.5125 11.8275 22.3475 11.3325C22.1825 10.84 21.6475 10.575 21.1525 10.74L15.525 12.6375C15.0325 12.8025 14.7675 13.3375 14.9325 13.8325C15.1 14.3225 15.635 14.5875 16.1275 14.4225ZM16.1275 18.1925L21.755 16.2975C22.2475 16.1325 22.5125 15.5975 22.3475 15.1025C22.1825 14.61 21.6475 14.345 21.1525 14.51L15.525 16.405C15.0325 16.57 14.7675 17.105 14.9325 17.6C15.1 18.0925 15.635 18.3575 16.1275 18.1925Z" fill="black"/>
</g>
</mask>
<g mask="url(#mask0_1_1785)">
<rect x="0.5" width="25" height="25" fill="#9197B1"/>
</g>
<defs>
<clipPath id="clip0_1_1785">
<rect width="25" height="25" fill="white" transform="translate(0.5)"/>
</clipPath>
</defs>
</svg>
