<svg width="26" height="25" viewBox="0 0 26 25" fill="none" xmlns="http://www.w3.org/2000/svg">
<mask id="mask0_1_1750" style="mask-type:alpha" maskUnits="userSpaceOnUse" x="0" y="0" width="26" height="25">
<g clip-path="url(#clip0_1_1750)">
<path d="M5.93689 12.6847H16.3522C16.8915 12.6847 17.3287 12.2475 17.3287 11.7081C17.3287 11.1687 16.8915 10.7315 16.3521 10.7315H5.93689C5.39753 10.7315 4.96033 11.1687 4.96033 11.7081C4.96033 12.2475 5.39753 12.6847 5.93689 12.6847Z" fill="black"/>
<path d="M5.93689 7.45099H16.3521C16.8915 7.45099 17.3287 7.01378 17.3287 6.47443C17.3287 5.93507 16.8915 5.49786 16.3522 5.49786H5.93689C5.39753 5.49786 4.96033 5.93507 4.96033 6.47443C4.96033 7.01378 5.39753 7.45099 5.93689 7.45099Z" fill="black"/>
<path d="M24.5234 3.71094H21.7891V0.976562C21.7891 0.437207 21.3519 0 20.8125 0H1.47656C0.937207 0 0.5 0.437207 0.5 0.976562V17.1991C0.5 17.7385 0.937207 18.1757 1.47656 18.1757H4.00513L5.68408 20.834C5.86304 21.1172 6.17466 21.2891 6.50977 21.2891C6.84487 21.2891 7.15654 21.1173 7.33545 20.834L9.0144 18.1756H20.8125C21.3519 18.1756 21.7891 17.7384 21.7891 17.1991V5.66406H23.5469V19.9335H21.4565C21.1215 19.9335 20.8098 20.1053 20.6309 20.3886L19.4902 22.1947L18.3495 20.3886C18.1706 20.1053 17.8589 19.9335 17.5238 19.9335H9.92773C9.38838 19.9335 8.95117 20.3707 8.95117 20.9101C8.95117 21.4494 9.38838 21.8866 9.92773 21.8866H16.9856L18.6646 24.5449C18.8435 24.8282 19.1552 25 19.4902 25C19.8253 25 20.137 24.8282 20.3159 24.5449L21.9949 21.8866H24.5234C25.0628 21.8866 25.5 21.4494 25.5 20.91V4.6875C25.5 4.14814 25.0628 3.71094 24.5234 3.71094ZM19.8359 16.2225H8.47617C8.14106 16.2225 7.82939 16.3943 7.65049 16.6776L6.50981 18.4837L5.36909 16.6776C5.19014 16.3943 4.87847 16.2225 4.54341 16.2225H2.45312V1.95312H19.8359V16.2225Z" fill="black"/>
</g>
</mask>
<g mask="url(#mask0_1_1750)">
<rect x="0.5" width="25" height="25" fill="#9197B1"/>
</g>
<defs>
<clipPath id="clip0_1_1750">
<rect width="25" height="25" fill="white" transform="translate(0.5)"/>
</clipPath>
</defs>
</svg>
