<svg width="19" height="18" viewBox="0 0 19 18" fill="none" xmlns="http://www.w3.org/2000/svg">
<mask id="mask0_1_142" style="mask-type:alpha" maskUnits="userSpaceOnUse" x="0" y="0" width="19" height="18">
<g clip-path="url(#clip0_1_142)">
<path d="M17.9249 16.3951L13.6409 11.9395C14.7424 10.6301 15.3459 8.98262 15.3459 7.26749C15.3459 3.26026 12.0856 0 8.07842 0C4.07118 0 0.810923 3.26026 0.810923 7.26749C0.810923 11.2747 4.07118 14.535 8.07842 14.535C9.58279 14.535 11.0164 14.0812 12.2421 13.2199L16.5586 17.7093C16.7391 17.8967 16.9817 18 17.2418 18C17.4879 18 17.7214 17.9062 17.8987 17.7355C18.2753 17.3731 18.2873 16.7721 17.9249 16.3951ZM8.07842 1.89587C11.0404 1.89587 13.45 4.30552 13.45 7.26749C13.45 10.2295 11.0404 12.6391 8.07842 12.6391C5.11644 12.6391 2.70679 10.2295 2.70679 7.26749C2.70679 4.30552 5.11644 1.89587 8.07842 1.89587Z" fill="black"/>
</g>
</mask>
<g mask="url(#mask0_1_142)">
<rect x="0.5" width="18" height="18" fill="#9197B1"/>
</g>
<defs>
<clipPath id="clip0_1_142">
<rect width="18" height="18" fill="white" transform="translate(0.5)"/>
</clipPath>
</defs>
</svg>
