<svg width="20" height="21" viewBox="0 0 20 21" fill="none" xmlns="http://www.w3.org/2000/svg">
<mask id="mask0_1_1904" style="mask-type:alpha" maskUnits="userSpaceOnUse" x="0" y="0" width="20" height="21">
<g clip-path="url(#clip0_1_1904)">
<path d="M11.9539 18.9375H8.04615C7.61451 18.9375 7.26459 19.2873 7.26459 19.7188C7.26459 20.1502 7.61451 20.5 8.04615 20.5H11.9539C12.3855 20.5 12.7354 20.1502 12.7354 19.7188C12.7354 19.2873 12.3855 18.9375 11.9539 18.9375Z" fill="black"/>
<path d="M17.7158 17.0366L16.2776 14.0444V6.77523C16.2776 3.31508 13.4615 0.5 9.99999 0.5C6.53846 0.5 3.72233 3.31508 3.72233 6.77523V14.0444L2.28413 17.0366C2.16776 17.2788 2.18397 17.5636 2.32702 17.7909C2.47006 18.0183 2.71991 18.1562 2.98858 18.1562H17.0114C17.2801 18.1562 17.5299 18.0183 17.673 17.7909C17.816 17.5636 17.8322 17.2788 17.7158 17.0366ZM4.23116 16.5938L5.20835 14.5607C5.25909 14.4552 5.28542 14.3395 5.28542 14.2224V6.77523C5.28542 4.17664 7.40038 2.0625 9.99999 2.0625C12.5996 2.0625 14.7146 4.17664 14.7146 6.77523V14.2223C14.7146 14.3395 14.7409 14.4551 14.7916 14.5607L15.7688 16.5938H4.23116Z" fill="black"/>
</g>
</mask>
<g mask="url(#mask0_1_1904)">
<rect y="0.5" width="20" height="20" fill="#868BA1"/>
</g>
<defs>
<clipPath id="clip0_1_1904">
<rect width="20" height="20" fill="white" transform="translate(0 0.5)"/>
</clipPath>
</defs>
</svg>
