<svg width="21" height="21" viewBox="0 0 21 21" fill="none" xmlns="http://www.w3.org/2000/svg">
<mask id="mask0_1_1807" style="mask-type:alpha" maskUnits="userSpaceOnUse" x="0" y="0" width="21" height="21">
<g clip-path="url(#clip0_1_1807)">
<path d="M17.0168 0.5H4.77716C3.48474 0.5 2.43341 1.31436 2.43341 2.31546L2.43341 14.1765C2.43341 15.1776 3.48474 15.9919 4.77716 15.9919H17.0168C18.3091 15.9919 19.3606 15.1776 19.3606 14.1765L19.3606 2.31546C19.3606 1.31436 18.3091 0.5 17.0168 0.5ZM8.60529 1.71031H13.1887L13.1887 2.88031H8.60529L8.60529 1.71031ZM17.7981 14.1765C17.7981 14.5101 17.4476 14.7816 17.0168 14.7816H4.77716C4.3464 14.7816 3.99591 14.5101 3.99591 14.1765L3.99591 2.31546C3.99591 1.9818 4.34641 1.71031 4.77716 1.71031H7.04279L7.04279 3.48546C7.04279 3.81972 7.39252 4.09062 7.82404 4.09062H13.97C14.4013 4.09062 14.7512 3.81972 14.7512 3.48546L14.7512 1.71031H17.0168C17.4476 1.71031 17.7981 1.9818 17.7981 2.31546L17.7981 14.1765ZM8.60529 6.81381C8.60529 7.14806 8.25555 7.41896 7.82404 7.41896H6.28763C5.85611 7.41896 5.50638 7.14806 5.50638 6.81381C5.50638 6.47956 5.85611 6.20866 6.28763 6.20866H7.82404C8.25555 6.20866 8.60529 6.47956 8.60529 6.81381ZM16.2876 6.81381C16.2876 7.14806 15.9379 7.41896 15.5064 7.41896H10.897C10.4655 7.41896 10.1158 7.14806 10.1158 6.81381C10.1158 6.47956 10.4655 6.20866 10.897 6.20866H15.5064C15.9379 6.20866 16.2876 6.47956 16.2876 6.81381ZM8.60529 9.537C8.60529 9.87126 8.25555 10.1422 7.82404 10.1422H6.28763C5.85611 10.1422 5.50638 9.87126 5.50638 9.537C5.50638 9.20275 5.85611 8.93185 6.28763 8.93185H7.82404C8.25555 8.93185 8.60529 9.20275 8.60529 9.537ZM16.2876 9.537C16.2876 9.87126 15.9379 10.1422 15.5064 10.1422H10.897C10.4655 10.1422 10.1158 9.87126 10.1158 9.537C10.1158 9.20275 10.4655 8.93185 10.897 8.93185H15.5064C15.9379 8.93185 16.2876 9.20275 16.2876 9.537ZM8.60529 12.2602C8.60529 12.5944 8.25555 12.8653 7.82404 12.8653H6.28763C5.85611 12.8653 5.50638 12.5944 5.50638 12.2602C5.50638 11.9259 5.85611 11.655 6.28763 11.655H7.82404C8.25555 11.655 8.60529 11.9259 8.60529 12.2602ZM16.2876 12.2602C16.2876 12.5944 15.9379 12.8653 15.5064 12.8653H10.897C10.4655 12.8653 10.1158 12.5944 10.1158 12.2602C10.1158 11.9259 10.4655 11.655 10.897 11.655H15.5064C15.9379 11.655 16.2876 11.9259 16.2876 12.2602Z" fill="black"/>
</g>
</mask>
<g mask="url(#mask0_1_1807)">
<rect x="0.909973" y="0.5" width="20" height="20" fill="#9197B1"/>
</g>
<defs>
<clipPath id="clip0_1_1807">
<rect width="20" height="20" fill="white" transform="translate(0.909973 0.5) scale(1 0.774597)"/>
</clipPath>
</defs>
</svg>
