<svg width="26" height="25" viewBox="0 0 26 25" fill="none" xmlns="http://www.w3.org/2000/svg">
<mask id="mask0_1_1739" style="mask-type:alpha" maskUnits="userSpaceOnUse" x="0" y="0" width="26" height="25">
<g clip-path="url(#clip0_1_1739)">
<path d="M20.4645 16.5867L18.0832 14.2078C16.933 13.0587 15.1569 12.9634 14.1239 13.9955L13.3132 14.8053C12.9852 15.133 12.3505 15.0525 11.9272 14.6295L9.69669 12.4011C9.21544 11.9204 9.23527 11.3036 9.52074 11.0184L10.3314 10.2086C11.4078 9.1333 11.2292 7.36038 10.1189 6.25109L7.73771 3.87215C6.5875 2.72312 4.81136 2.62785 3.77835 3.65993L2.00132 5.4352C0.279722 7.15514 0.0124603 9.68907 1.33622 11.7405C2.44604 13.4606 9.0771 20.1032 12.4491 22.4762C14.5445 23.9505 17.2441 23.9736 18.9 22.3194L20.677 20.5442C21.7533 19.469 21.5747 17.6959 20.4645 16.5867ZM19.6415 19.5078L17.8645 21.283C16.7537 22.393 14.8734 22.3907 13.2921 21.2781C10.0998 19.0317 3.59996 12.5471 2.56715 10.9463C1.61242 9.46678 1.79676 7.71036 3.03668 6.47167L4.8137 4.69635C5.31526 4.19528 6.17492 4.38177 6.70226 4.90863L9.08345 7.28752C9.72115 7.92464 9.70352 8.76501 9.29592 9.17232L8.48534 9.98211C7.5518 10.9147 7.68375 12.4611 8.66129 13.4376L10.8918 15.666C11.8813 16.6546 13.4337 16.756 14.3487 15.8418L15.1593 15.032C15.6214 14.5703 16.4686 14.6656 17.0479 15.2443L19.4291 17.6232C20.0693 18.2626 20.0468 19.1029 19.6415 19.5078Z" fill="black"/>
<path d="M14.6358 4.22355C15.0328 4.30129 15.4176 4.04218 15.4952 3.64512C15.5803 3.20953 15.9624 2.89339 16.4037 2.89339C16.9011 2.89339 17.3081 3.29108 17.3288 3.78776L17.3085 3.94749C17.2275 4.27033 17.0363 4.64952 16.74 5.07509C14.4263 8.39733 14.1209 8.36642 14.3069 8.97C14.3802 9.20801 14.5604 9.39079 14.8014 9.47151C15.0955 9.57001 17.3007 9.54285 18.3543 9.53465C18.7588 9.53148 19.0842 9.20093 19.081 8.79644C19.0778 8.39191 18.7466 8.06889 18.3428 8.06967C17.6773 8.07489 16.9709 8.07694 16.3898 8.07533C16.7507 7.59076 17.2558 6.89787 17.9422 5.91233C18.3164 5.37488 18.7947 4.51869 18.7947 3.82766C18.7947 2.50468 17.7221 1.42841 16.4037 1.42841C15.2634 1.42841 14.2767 2.2425 14.0575 3.36414C13.9798 3.76115 14.2387 4.14595 14.6358 4.22355Z" fill="black"/>
<path d="M24.7675 6.12456H24.6539C24.6632 4.52548 24.6681 2.80803 24.6483 2.5708C24.5569 1.47441 23.3628 1.00293 22.5986 1.93969C22.2211 2.40248 20.4738 5.54946 19.9473 6.50297C19.678 6.99051 20.0314 7.58954 20.5885 7.58954H23.179C23.1758 8.02274 23.1725 8.43826 23.1693 8.81295C23.1658 9.21748 23.4909 9.54828 23.8954 9.55174C24.2855 9.56034 24.6307 9.23941 24.6342 8.82565C24.6362 8.5953 24.64 8.14629 24.6441 7.58954H24.7675C25.1721 7.58954 25.5 7.26158 25.5 6.85705C25.5 6.45252 25.1721 6.12456 24.7675 6.12456ZM23.1886 6.12456H21.8337C22.3406 5.21847 22.8354 4.34915 23.1974 3.73229C23.1974 4.37141 23.1938 5.23195 23.1886 6.12456Z" fill="black"/>
</g>
</mask>
<g mask="url(#mask0_1_1739)">
<rect x="0.5" width="25" height="25" fill="#9197B1"/>
</g>
<defs>
<clipPath id="clip0_1_1739">
<rect width="25" height="25" fill="white" transform="translate(0.5)"/>
</clipPath>
</defs>
</svg>
