<svg width="20" height="21" viewBox="0 0 20 21" fill="none" xmlns="http://www.w3.org/2000/svg">
<mask id="mask0_1_365" style="mask-type:alpha" maskUnits="userSpaceOnUse" x="0" y="0" width="20" height="21">
<g clip-path="url(#clip0_1_365)">
<path fill-rule="evenodd" clip-rule="evenodd" d="M19.1034 11.5982L11.3179 14.8764C10.9092 15.0328 10.4679 15.1222 10.0051 15.1222C9.54334 15.1222 9.10256 15.0321 8.69596 14.8777L0.905859 11.5977C0.776158 11.5415 0.655887 11.4605 0.5501 11.3552C0.0941702 10.8996 0.0941702 10.1608 0.5501 9.7049C0.65807 9.59734 0.782988 9.51533 0.913906 9.45916L1.89098 9.04805C1.9816 8.99366 2.08588 8.96072 2.19836 8.96072C2.53143 8.96072 2.80135 9.23037 2.80135 9.56346C2.80135 9.83338 2.62354 10.0586 2.3789 10.136L2.0733 10.2631C1.97736 10.3145 1.91162 10.4141 1.91162 10.5301C1.91162 10.6434 1.97408 10.7414 2.06674 10.7945L9.01258 13.693C9.03253 13.7005 9.0503 13.7046 9.07025 13.713C9.35849 13.8323 9.67352 13.8975 10.0051 13.8975C10.3334 13.8975 10.6464 13.8328 10.9327 13.7157C10.9566 13.7061 10.9778 13.6998 11.0012 13.691L17.9432 10.7945C18.0358 10.7416 18.0983 10.6434 18.0983 10.5301C18.0983 10.4136 18.0321 10.3146 17.9362 10.2631L17.63 10.1354C17.3861 10.0586 17.2083 9.83257 17.2083 9.56345C17.2083 9.23038 17.4782 8.96071 17.8113 8.96071C17.9251 8.96071 18.0309 8.9942 18.1215 9.04914L19.0982 9.46053C19.2288 9.5167 19.3522 9.59775 19.4592 9.70476C19.9152 10.1607 19.9152 10.8994 19.4592 11.3551C19.3532 11.461 19.233 11.542 19.1032 11.5982L19.1034 11.5982ZM19.105 7.61693L11.3075 10.8999C10.9027 11.0536 10.4645 11.1421 10.0053 11.1421C9.54757 11.1421 9.11092 11.0545 8.70649 10.9021L0.904493 7.61692C0.775338 7.56006 0.656022 7.48025 0.550239 7.37542C0.094309 6.91949 0.094309 6.18008 0.550239 5.72429C0.656708 5.61878 0.777389 5.53924 0.908587 5.48156L8.70778 2.198C9.11193 2.04534 9.54778 1.95746 10.0055 1.95746C10.464 1.95746 10.9014 2.04534 11.3065 2.19896L12.0326 2.50456C12.2819 2.58232 12.4637 2.81221 12.4637 3.08665C12.4637 3.42451 12.1898 3.69923 11.8514 3.69923C11.7477 3.69923 11.6523 3.67025 11.5666 3.62501L10.9905 3.38461C10.9708 3.37709 10.9528 3.37231 10.9331 3.36397C10.6468 3.24643 10.3336 3.18192 10.0055 3.18192C9.67392 3.18192 9.35891 3.24807 9.07064 3.3667C9.05424 3.37353 9.03989 3.37709 9.02308 3.3831L2.07059 6.28452C1.97738 6.33687 1.91219 6.43487 1.91219 6.55035C1.91219 6.66366 1.97465 6.7611 2.06649 6.81468L9.02213 9.71582C9.03853 9.72266 9.05356 9.72594 9.07078 9.73291C9.35902 9.85167 9.67405 9.91768 10.0056 9.91768C10.3339 9.91768 10.6469 9.85304 10.9332 9.73564C10.9536 9.72757 10.972 9.72211 10.9921 9.71445L17.9443 6.81482C18.0364 6.76138 18.0989 6.66379 18.0989 6.55049C18.0989 6.43514 18.0337 6.33769 17.9402 6.28466L16.9967 5.89063C16.7641 5.80685 16.5967 5.58721 16.5967 5.32564C16.5967 4.99284 16.8663 4.7229 17.1994 4.7229C17.3134 4.7229 17.4197 4.75666 17.5106 4.81132L19.1046 5.48278C19.2343 5.5384 19.3542 5.61945 19.4601 5.72428C19.916 6.18021 19.916 6.91961 19.4601 7.3754C19.3542 7.48037 19.2343 7.56018 19.1052 7.6169L19.105 7.61693ZM13.9851 4.71306C13.6467 4.71306 13.3726 4.43917 13.3726 4.10077C13.3726 3.76237 13.6467 3.48848 13.9851 3.48848C14.3226 3.48848 14.5974 3.76237 14.5974 4.10077C14.5974 4.43931 14.3226 4.71306 13.9851 4.71306ZM0.91394 13.4384L1.89525 13.0258C1.98436 12.9732 2.08714 12.9409 2.19839 12.9409C2.53146 12.9409 2.80138 13.2106 2.80138 13.5436C2.80138 13.816 2.61878 14.0441 2.37004 14.1182L2.07346 14.2423C1.97752 14.2941 1.91178 14.3927 1.91178 14.5094C1.91178 14.6236 1.97424 14.7211 2.0669 14.774L9.02289 17.6763C9.0397 17.6826 9.05391 17.6859 9.07045 17.6927C9.35869 17.8115 9.67371 17.8775 10.0053 17.8775C10.3336 17.8775 10.6466 17.8123 10.9329 17.6955C10.9526 17.6874 10.9706 17.6826 10.9903 17.6748L17.9435 14.774C18.0361 14.7211 18.0986 14.6236 18.0986 14.5094C18.0986 14.3933 18.0325 14.2941 17.9365 14.2423L17.6379 14.1182C17.3896 14.0425 17.2086 13.8154 17.2086 13.5436C17.2086 13.2106 17.4785 12.9409 17.8116 12.9409C17.9212 12.9409 18.0223 12.9723 18.1107 13.023L19.0985 13.4392C19.2303 13.4961 19.352 13.5765 19.4595 13.684C19.9155 14.1399 19.9155 14.8787 19.4595 15.3346C19.3546 15.4396 19.2344 15.5191 19.108 15.5756L11.3099 18.8591C10.9035 19.0142 10.465 19.1016 10.0049 19.1016C9.54569 19.1016 9.10778 19.0132 8.70255 18.8601L0.899854 15.5749C0.772203 15.518 0.654119 15.4392 0.549833 15.3349C0.0939033 14.8789 0.0939033 14.1402 0.549833 13.6843C0.657667 13.5766 0.782721 13.4955 0.913534 13.4384L0.91394 13.4384Z" fill="black"/>
</g>
</mask>
<g mask="url(#mask0_1_365)">
<rect y="0.5" width="20" height="20" fill="#856DFC"/>
</g>
<defs>
<clipPath id="clip0_1_365">
<rect width="20" height="17.4327" fill="white" transform="translate(0 1.78363)"/>
</clipPath>
</defs>
</svg>
