<svg width="13" height="13" viewBox="0 0 13 13" fill="none" xmlns="http://www.w3.org/2000/svg">
<mask id="mask0_1_1123" style="mask-type:alpha" maskUnits="userSpaceOnUse" x="0" y="0" width="13" height="13">
<g clip-path="url(#clip0_1_1123)">
<path d="M6.70001 0.5C5.09732 0.5 3.59063 1.12411 2.45739 2.25735C0.117974 4.59673 0.117974 8.4032 2.45732 10.7426C3.59056 11.8759 5.09732 12.5 6.70001 12.5C8.30263 12.5 9.80939 11.8759 10.9426 10.7426C13.282 8.4032 13.282 4.59673 10.9426 2.25735C9.80939 1.12411 8.30263 0.5 6.70001 0.5ZM9.39986 9.19982C9.29332 9.30633 9.15376 9.3596 9.01416 9.3596C8.87459 9.3596 8.73496 9.30633 8.62852 9.19982L6.70001 7.27138L4.77154 9.19985C4.66499 9.30636 4.52543 9.35964 4.38583 9.35964C4.24627 9.35964 4.10663 9.30636 4.00019 9.19985C3.78714 8.98687 3.78714 8.64149 4.00019 8.42847L5.92863 6.5L4.00016 4.57153C3.7871 4.35855 3.7871 4.01316 4.00016 3.80015C4.21314 3.58716 4.55852 3.58716 4.77154 3.80015L6.70001 5.72862L8.62841 3.80015C8.84139 3.58716 9.18677 3.58716 9.39979 3.80015C9.61285 4.01313 9.61285 4.35851 9.39979 4.57153L7.47139 6.5L9.39986 8.42844C9.61288 8.64145 9.61288 8.98684 9.39986 9.19982Z" fill="black"/>
</g>
</mask>
<g mask="url(#mask0_1_1123)">
<rect x="0.700012" y="0.5" width="12" height="12" fill="#FF5858"/>
</g>
<defs>
<clipPath id="clip0_1_1123">
<rect width="12" height="12" fill="white" transform="translate(0.700012 0.5)"/>
</clipPath>
</defs>
</svg>
