<svg width="26" height="25" viewBox="0 0 26 25" fill="none" xmlns="http://www.w3.org/2000/svg">
<mask id="mask0_1_1731" style="mask-type:alpha" maskUnits="userSpaceOnUse" x="-10" y="-10" width="46" height="45">
<path d="M12 0C11.0717 0 10.1815 0.368749 9.52513 1.02513C8.86875 1.6815 8.5 2.57174 8.5 3.5V6.5H9.5V3.5C9.5 2.83696 9.76339 2.20107 10.2322 1.73223C10.7011 1.26339 11.337 1 12 1H21C21.663 1 22.2989 1.26339 22.7678 1.73223C23.2366 2.20107 23.5 2.83696 23.5 3.5V6.5C23.5 7.16304 23.2366 7.79893 22.7678 8.26777C22.2989 8.73661 21.663 9 21 9H20V10H21C21.9283 10 22.8185 9.63125 23.4749 8.97487C24.1312 8.3185 24.5 7.42826 24.5 6.5V3.5C24.5 2.57174 24.1312 1.6815 23.4749 1.02513C22.8185 0.368749 21.9283 0 21 0H12ZM5 6C3.80653 6 2.66193 6.47411 1.81802 7.31802C0.974106 8.16193 0.5 9.30653 0.5 10.5V23.7L5.2 19H16C17.1935 19 18.3381 18.5259 19.182 17.682C20.0259 16.8381 20.5 15.6935 20.5 14.5V10.5C20.5 9.30653 20.0259 8.16193 19.182 7.31802C18.3381 6.47411 17.1935 6 16 6H5ZM5 7H16C16.9283 7 17.8185 7.36875 18.4749 8.02513C19.1313 8.6815 19.5 9.57174 19.5 10.5V14.5C19.5 15.4283 19.1313 16.3185 18.4749 16.9749C17.8185 17.6313 16.9283 18 16 18H4.8L1.5 21.3V10.5C1.5 9.57174 1.86875 8.6815 2.52513 8.02513C3.1815 7.36875 4.07174 7 5 7ZM20 12V13H21C21.663 13 22.2989 13.2634 22.7678 13.7322C23.2366 14.2011 23.5 14.837 23.5 15.5V24.3L20.2 21H12C11.337 21 10.7011 20.7366 10.2322 20.2678C9.76339 19.7989 9.5 19.163 9.5 18.5H8.5C8.5 19.4283 8.86875 20.3185 9.52513 20.9749C10.1815 21.6313 11.0717 22 12 22H19.8L24.5 26.7V15.5C24.5 14.5717 24.1312 13.6815 23.4749 13.0251C22.8185 12.3687 21.9283 12 21 12H20Z" fill="black"/>
</mask>
<g mask="url(#mask0_1_1731)">
<rect x="0.5" width="25" height="25" fill="#9197B1"/>
</g>
</svg>
