<svg width="26" height="25" viewBox="0 0 26 25" fill="none" xmlns="http://www.w3.org/2000/svg">
<mask id="mask0_1_1777" style="mask-type:alpha" maskUnits="userSpaceOnUse" x="0" y="0" width="26" height="25">
<g clip-path="url(#clip0_1_1777)">
<path d="M13 0C6.52368 0 1.28149 5.24111 1.28149 11.7185C1.28149 14.5582 2.30249 17.2794 4.1623 19.4135V24.267C4.1623 24.9213 4.95435 25.2433 5.4126 24.7849L7.91768 22.2798C15.6214 25.9864 24.7186 20.4167 24.7186 11.7185C24.7185 5.24219 19.4774 0 13 0ZM8.12505 20.7414C7.84009 20.5871 7.4876 20.6385 7.2584 20.8676L5.6271 22.4989V19.1341C5.6271 18.951 5.55855 18.7746 5.43496 18.6396C3.70117 16.7455 2.74634 14.2875 2.74634 11.7185C2.74634 6.06455 7.34614 1.46475 13 1.46475C18.654 1.46475 23.2538 6.06455 23.2538 11.7185C23.2537 19.4984 14.8995 24.4098 8.12505 20.7414Z" fill="black"/>
<path d="M13 5.17081C10.5756 5.17081 8.60315 7.14327 8.60315 9.56768C8.60315 9.97217 8.93108 10.3001 9.33557 10.3001C9.74006 10.3001 10.068 9.97217 10.068 9.56768C10.068 7.95093 11.3833 6.6356 13.0001 6.6356C14.6168 6.6356 15.9322 7.95093 15.9322 9.56768C15.9322 11.1844 14.6168 12.4998 13 12.4998C12.5955 12.4998 12.2676 12.8277 12.2676 13.2322V15.427C12.2676 15.8315 12.5955 16.1594 13 16.1594C13.4045 16.1594 13.7324 15.8315 13.7324 15.427V13.9036C15.8095 13.5538 17.3969 11.7426 17.3969 9.56768C17.3969 7.14327 15.4244 5.17081 13 5.17081Z" fill="black"/>
<path d="M13 19.0865C13.4032 19.0865 13.73 18.7597 13.73 18.3565C13.73 17.9534 13.4032 17.6266 13 17.6266C12.5968 17.6266 12.27 17.9534 12.27 18.3565C12.27 18.7597 12.5968 19.0865 13 19.0865Z" fill="black"/>
</g>
</mask>
<g mask="url(#mask0_1_1777)">
<rect x="0.5" width="25" height="25" fill="#9197B1"/>
</g>
<defs>
<clipPath id="clip0_1_1777">
<rect width="25" height="25" fill="white" transform="translate(0.5)"/>
</clipPath>
</defs>
</svg>
