<svg width="15" height="16" viewBox="0 0 15 16" fill="none" xmlns="http://www.w3.org/2000/svg">
<mask id="mask0_1_1302" style="mask-type:alpha" maskUnits="userSpaceOnUse" x="0" y="0" width="15" height="16">
<g clip-path="url(#clip0_1_1302)">
<path d="M12.0802 0.5H2.90039C1.93108 0.5 1.14258 1.2885 1.14258 2.25781V13.7422C1.14258 14.7115 1.93108 15.5 2.90039 15.5H12.0802C13.0494 15.5 13.838 14.7115 13.838 13.7422V2.25781C13.838 1.2885 13.0494 0.5 12.0802 0.5ZM5.77148 1.67188H9.20906V2.80473H5.77148V1.67188ZM12.6661 13.7422C12.6661 14.0653 12.4032 14.3281 12.0802 14.3281H2.90039C2.57732 14.3281 2.31445 14.0653 2.31445 13.7422V2.25781C2.31445 1.93475 2.57732 1.67188 2.90039 1.67188H4.59961V3.39066C4.59961 3.7143 4.86191 3.9766 5.18555 3.9766H9.795C10.1185 3.9766 10.3809 3.7143 10.3809 3.39066V1.67188H12.0802C12.4032 1.67188 12.6661 1.93475 12.6661 2.25781V13.7422ZM5.77148 6.61332C5.77148 6.93696 5.50919 7.19926 5.18555 7.19926H4.03324C3.7096 7.19926 3.4473 6.93696 3.4473 6.61332C3.4473 6.28968 3.7096 6.02738 4.03324 6.02738H5.18555C5.50919 6.02738 5.77148 6.28968 5.77148 6.61332ZM11.5332 6.61332C11.5332 6.93696 11.2709 7.19926 10.9473 7.19926H7.49027C7.16663 7.19926 6.90434 6.93696 6.90434 6.61332C6.90434 6.28968 7.16663 6.02738 7.49027 6.02738H10.9473C11.2709 6.02738 11.5332 6.28968 11.5332 6.61332ZM5.77148 9.25004C5.77148 9.57368 5.50919 9.83598 5.18555 9.83598H4.03324C3.7096 9.83598 3.4473 9.57368 3.4473 9.25004C3.4473 8.9264 3.7096 8.6641 4.03324 8.6641H5.18555C5.50919 8.6641 5.77148 8.9264 5.77148 9.25004ZM11.5332 9.25004C11.5332 9.57368 11.2709 9.83598 10.9473 9.83598H7.49027C7.16663 9.83598 6.90434 9.57368 6.90434 9.25004C6.90434 8.9264 7.16663 8.6641 7.49027 8.6641H10.9473C11.2709 8.6641 11.5332 8.9264 11.5332 9.25004ZM5.77148 11.8868C5.77148 12.2104 5.50919 12.4727 5.18555 12.4727H4.03324C3.7096 12.4727 3.4473 12.2104 3.4473 11.8868C3.4473 11.5631 3.7096 11.3008 4.03324 11.3008H5.18555C5.50919 11.3008 5.77148 11.5631 5.77148 11.8868ZM11.5332 11.8868C11.5332 12.2104 11.2709 12.4727 10.9473 12.4727H7.49027C7.16663 12.4727 6.90434 12.2104 6.90434 11.8868C6.90434 11.5631 7.16663 11.3008 7.49027 11.3008H10.9473C11.2709 11.3008 11.5332 11.5631 11.5332 11.8868Z" fill="black"/>
</g>
</mask>
<g mask="url(#mask0_1_1302)">
<rect y="0.5" width="15" height="15" fill="#9197B1"/>
</g>
<defs>
<clipPath id="clip0_1_1302">
<rect width="15" height="15" fill="white" transform="translate(0 0.5)"/>
</clipPath>
</defs>
</svg>
