<svg width="15" height="16" viewBox="0 0 15 16" fill="none" xmlns="http://www.w3.org/2000/svg">
<mask id="mask0_1_1512" style="mask-type:alpha" maskUnits="userSpaceOnUse" x="0" y="0" width="15" height="16">
<g clip-path="url(#clip0_1_1512)">
<path d="M1.69922 10.8398C1.37558 10.8398 1.11328 11.1021 1.11328 11.4258V13.4539C1.11328 13.7774 1.37558 14.0398 1.69922 14.0398C2.02286 14.0398 2.28516 13.7774 2.28516 13.4539V11.4258C2.28516 11.1021 2.02286 10.8398 1.69922 10.8398Z" fill="black"/>
<path d="M5.56641 7.85913C5.24277 7.85913 4.98047 8.12143 4.98047 8.44507V13.4538C4.98047 13.7774 5.24277 14.0397 5.56641 14.0397C5.89005 14.0397 6.15234 13.7774 6.15234 13.4538V8.44507C6.15234 8.12143 5.89005 7.85913 5.56641 7.85913Z" fill="black"/>
<path d="M9.43359 9.83838C9.10995 9.83838 8.84766 10.1007 8.84766 10.4243V13.4538C8.84766 13.7774 9.10995 14.0397 9.43359 14.0397C9.75723 14.0397 10.0195 13.7774 10.0195 13.4538V10.4243C10.0195 10.1007 9.75723 9.83838 9.43359 9.83838Z" fill="black"/>
<path d="M13.3008 6.4635C12.9771 6.4635 12.7148 6.72591 12.7148 7.04944V13.4538C12.7148 13.7774 12.9771 14.0397 13.3008 14.0397C13.6244 14.0397 13.8867 13.7774 13.8867 13.4538V7.04944C13.8867 6.72591 13.6244 6.4635 13.3008 6.4635Z" fill="black"/>
<path d="M13.3008 1.96484C12.3639 1.96484 11.6016 2.72713 11.6016 3.66406C11.6016 3.87795 11.6416 4.08246 11.7141 4.27106L10.2497 5.54902C10.0074 5.4157 9.72919 5.33971 9.43359 5.33971C8.98945 5.33971 8.58479 5.51114 8.28175 5.79106L7.25281 5.26452C7.26093 5.19723 7.26562 5.12902 7.26562 5.05956C7.26562 4.12263 6.50333 3.36034 5.56641 3.36034C4.62948 3.36034 3.86719 4.12263 3.86719 5.05956C3.86719 5.23705 3.89465 5.40826 3.94535 5.56916L2.6041 6.60302C2.3418 6.43742 2.03167 6.34106 1.69922 6.34106C0.762291 6.34106 0 7.10336 0 8.04028C0 8.97721 0.762291 9.7395 1.69922 9.7395C2.63615 9.7395 3.39844 8.97721 3.39844 8.04028C3.39844 7.86279 3.37097 7.69158 3.32027 7.53068L4.66152 6.49682C4.92382 6.66241 5.23396 6.75877 5.56641 6.75877C6.01055 6.75877 6.41521 6.58734 6.71825 6.3073L7.74719 6.83396C7.73907 6.90114 7.73438 6.96946 7.73438 7.03893C7.73438 7.97585 8.49667 8.73814 9.43359 8.73814C10.3705 8.73814 11.1328 7.97585 11.1328 7.03893C11.1328 6.82504 11.0928 6.62053 11.0203 6.43193L12.4847 5.15397C12.7271 5.28729 13.0052 5.36328 13.3008 5.36328C14.2377 5.36328 15 4.60099 15 3.66406C15 2.72713 14.2377 1.96484 13.3008 1.96484ZM1.69922 8.56763C1.40842 8.56763 1.17188 8.33108 1.17188 8.04028C1.17188 7.74949 1.40842 7.51294 1.69922 7.51294C1.99001 7.51294 2.22656 7.74949 2.22656 8.04028C2.22656 8.33108 1.99001 8.56763 1.69922 8.56763ZM5.56641 5.5869C5.27561 5.5869 5.03906 5.35035 5.03906 5.05956C5.03906 4.76876 5.27561 4.53221 5.56641 4.53221C5.8572 4.53221 6.09375 4.76876 6.09375 5.05956C6.09375 5.35035 5.8572 5.5869 5.56641 5.5869ZM9.43359 7.56627C9.1428 7.56627 8.90625 7.32961 8.90625 7.03893C8.90625 6.74813 9.1428 6.51158 9.43359 6.51158C9.72439 6.51158 9.96094 6.74813 9.96094 7.03893C9.96094 7.32961 9.72439 7.56627 9.43359 7.56627ZM13.3008 4.19141C13.01 4.19141 12.7734 3.95486 12.7734 3.66406C12.7734 3.37327 13.01 3.13672 13.3008 3.13672C13.5916 3.13672 13.8281 3.37327 13.8281 3.66406C13.8281 3.95486 13.5916 4.19141 13.3008 4.19141Z" fill="black"/>
</g>
</mask>
<g mask="url(#mask0_1_1512)">
<rect y="0.5" width="15" height="15" fill="#9197B1"/>
</g>
<defs>
<clipPath id="clip0_1_1512">
<rect width="15" height="15" fill="white" transform="translate(0 0.5)"/>
</clipPath>
</defs>
</svg>
