<svg width="15" height="16" viewBox="0 0 15 16" fill="none" xmlns="http://www.w3.org/2000/svg">
<mask id="mask0_1_1526" style="mask-type:alpha" maskUnits="userSpaceOnUse" x="0" y="0" width="15" height="16">
<g clip-path="url(#clip0_1_1526)">
<path d="M6.34767 8.56626H0.585938C0.262324 8.56626 0 8.82858 0 9.15219V14.9139C0 15.2375 0.262324 15.4999 0.585938 15.4999H6.34767C6.67128 15.4999 6.9336 15.2375 6.9336 14.9139V9.15219C6.9336 8.82858 6.67125 8.56626 6.34767 8.56626ZM5.76173 14.328H1.17188V9.73813H5.76173V14.328ZM11.5332 8.56626C9.62162 8.56626 8.06643 10.1215 8.06643 12.0331C8.06643 13.9447 9.62162 15.4999 11.5332 15.4999C13.4448 15.4999 15 13.9447 15 12.0331C15 10.1215 13.4448 8.56626 11.5332 8.56626ZM11.5332 14.328C10.2678 14.328 9.2383 13.2985 9.2383 12.0331C9.2383 10.7677 10.2678 9.73813 11.5332 9.73813C12.7986 9.73813 13.8281 10.7677 13.8281 12.0331C13.8281 13.2985 12.7986 14.328 11.5332 14.328ZM4.04297 7.43346H10.957C11.412 7.43346 11.6934 6.93603 11.4595 6.54606L8.00244 0.784334C7.77545 0.406023 7.22522 0.40491 6.99756 0.784334L3.54053 6.54606C3.30647 6.93615 3.58819 7.43346 4.04297 7.43346ZM7.5 2.22466L9.92215 6.26159H5.07785L7.5 2.22466Z" fill="black"/>
</g>
</mask>
<g mask="url(#mask0_1_1526)">
<rect y="0.5" width="15" height="15" fill="#9197B1"/>
</g>
<defs>
<clipPath id="clip0_1_1526">
<rect width="15" height="15" fill="white" transform="translate(0 0.5)"/>
</clipPath>
</defs>
</svg>
