<svg width="15" height="16" viewBox="0 0 15 16" fill="none" xmlns="http://www.w3.org/2000/svg">
<mask id="mask0_1_1462" style="mask-type:alpha" maskUnits="userSpaceOnUse" x="0" y="0" width="15" height="16">
<g clip-path="url(#clip0_1_1462)">
<path d="M14.6761 7.47593L12.2672 6.2715L14.6761 5.06708C15.1069 4.85163 15.1075 4.23461 14.6761 4.01892L7.76199 0.561892C7.59702 0.479451 7.40287 0.479451 7.2379 0.561892L0.323838 4.01892C-0.107002 4.23434 -0.107588 4.85139 0.323838 5.06708L2.73271 6.2715L0.323838 7.47593C-0.107002 7.69135 -0.107588 8.3084 0.323838 8.52408L2.73271 9.72853L0.323838 10.933C-0.107002 11.1484 -0.107588 11.7654 0.323838 11.9811L7.2379 15.4381C7.40261 15.5205 7.59667 15.5208 7.76199 15.4381L14.6761 11.9811C15.1069 11.7657 15.1075 11.1486 14.6761 10.933L12.2672 9.72853L14.6761 8.52411C15.1069 8.30866 15.1075 7.69164 14.6761 7.47593ZM7.49996 1.74103L13.1038 4.54299L7.49996 7.34491L1.89608 4.54299L7.49996 1.74103ZM13.1038 11.457L7.49996 14.259L1.89608 11.457L4.04293 10.3836L7.23793 11.9811C7.40264 12.0634 7.5967 12.0637 7.76202 11.9811L10.957 10.3836L13.1038 11.457ZM7.49996 10.8019L1.89608 8.00002L4.04293 6.92658L7.23793 8.52408C7.40264 8.6064 7.5967 8.6067 7.76202 8.52408L10.957 6.92658L13.1038 8.00002L7.49996 10.8019Z" fill="black"/>
</g>
</mask>
<g mask="url(#mask0_1_1462)">
<rect y="0.5" width="15" height="15" fill="#9197B1"/>
</g>
<defs>
<clipPath id="clip0_1_1462">
<rect width="15" height="15" fill="white" transform="translate(0 0.5)"/>
</clipPath>
</defs>
</svg>
