<svg width="15" height="16" viewBox="0 0 15 16" fill="none" xmlns="http://www.w3.org/2000/svg">
<mask id="mask0_1_1213" style="mask-type:alpha" maskUnits="userSpaceOnUse" x="0" y="0" width="15" height="16">
<path d="M7.91309 2.50977C7.68457 2.28125 7.3125 2.28125 7.08398 2.50977L1.2832 8.31055C1.05469 8.53906 1.05469 8.91113 1.2832 9.13965C1.51172 9.36816 1.88379 9.36816 2.1123 9.13965L3.04688 8.20508V13.0742C3.04688 13.3965 3.31055 13.6602 3.63281 13.6602H11.3672C11.6895 13.6602 11.9531 13.3965 11.9531 13.0742V8.20508L12.8877 9.13965C13.1162 9.36816 13.4883 9.36816 13.7168 9.13965C13.9453 8.91113 13.9453 8.53906 13.7168 8.31055L7.91309 2.50977ZM10.7812 12.4912H4.21875V7.0332L7.5 3.75195L10.7812 7.0332V12.4912Z" fill="black"/>
</mask>
<g mask="url(#mask0_1_1213)">
<rect y="0.5" width="15" height="15" fill="#9197B1"/>
</g>
</svg>
