<svg width="15" height="16" viewBox="0 0 15 16" fill="none" xmlns="http://www.w3.org/2000/svg">
<mask id="mask0_1_1452" style="mask-type:alpha" maskUnits="userSpaceOnUse" x="0" y="0" width="15" height="16">
<g clip-path="url(#clip0_1_1452)">
<path d="M14.4141 7.41406H10.5469V1.08594C10.5469 0.762299 10.2846 0.5 9.96094 0.5H0.585938C0.262299 0.5 0 0.762299 0 1.08594V12.6875C0 14.2383 1.26171 15.5 2.8125 15.5H12.1875C13.7383 15.5 15 14.2383 15 12.6875V8C15 7.67636 14.7377 7.41406 14.4141 7.41406ZM2.8125 14.3281C1.90784 14.3281 1.17188 13.5922 1.17188 12.6875V1.67188H9.375V12.6875C9.375 13.2993 9.57138 13.866 9.90429 14.3281H2.8125ZM13.8281 12.6875C13.8281 13.5922 13.0922 14.3281 12.1875 14.3281C11.2828 14.3281 10.5469 13.5922 10.5469 12.6875V8.58594H13.8281V12.6875ZM7.61719 3.9766H2.92969C2.60605 3.9766 2.34375 4.2389 2.34375 4.56254V9.13285C2.34375 9.45649 2.60605 9.71879 2.92969 9.71879H7.61719C7.94083 9.71879 8.20312 9.45649 8.20312 9.13285V4.56254C8.20312 4.2389 7.94083 3.9766 7.61719 3.9766ZM7.03125 8.54691H3.51562V5.14848H7.03125V8.54691ZM8.20312 11.4375C8.20312 11.7611 7.94083 12.0234 7.61719 12.0234H2.92969C2.60605 12.0234 2.34375 11.7611 2.34375 11.4375C2.34375 11.1138 2.60605 10.8515 2.92969 10.8515H7.61719C7.94083 10.8515 8.20312 11.1139 8.20312 11.4375Z" fill="black"/>
</g>
</mask>
<g mask="url(#mask0_1_1452)">
<rect y="0.5" width="15" height="15" fill="#9197B1"/>
</g>
<defs>
<clipPath id="clip0_1_1452">
<rect width="15" height="15" fill="white" transform="translate(0 0.5)"/>
</clipPath>
</defs>
</svg>
