<svg width="15" height="16" viewBox="0 0 15 16" fill="none" xmlns="http://www.w3.org/2000/svg">
<mask id="mask0_1_1382" style="mask-type:alpha" maskUnits="userSpaceOnUse" x="0" y="0" width="15" height="16">
<g clip-path="url(#clip0_1_1382)">
<path d="M1.34766 12.626H3.02637V15.5H4.14551V12.626H5.82422C6.13184 12.626 6.38379 12.3682 6.38379 12.0518V5.72656C6.38379 5.41016 6.13477 5.15234 5.82422 5.15234H4.14551V2.27539H3.02637V5.14941H1.34766C1.04004 5.14941 0.788086 5.40723 0.788086 5.72363V12.0488C0.788086 12.3682 1.03711 12.626 1.34766 12.626ZM1.90723 6.30078H5.26465V11.4746H1.90723V6.30078ZM9.17871 10.9004H10.8574V13.7744H11.9766V10.9004H13.6523C13.96 10.9004 14.2119 10.6426 14.2119 10.3262V4.00098C14.2119 3.68457 13.9629 3.42676 13.6523 3.42676H11.9736V0.552734H10.8545V3.42676H9.17578C8.86816 3.42676 8.61621 3.68457 8.61621 4.00098V10.3262C8.61914 10.6426 8.86816 10.9004 9.17871 10.9004ZM9.73828 4.5752H13.0957V9.74902H9.73828V4.5752Z" fill="black"/>
</g>
</mask>
<g mask="url(#mask0_1_1382)">
<rect y="0.5" width="15" height="15" fill="#9197B1"/>
</g>
<defs>
<clipPath id="clip0_1_1382">
<rect width="15" height="15" fill="white" transform="translate(0 0.5)"/>
</clipPath>
</defs>
</svg>
