<svg width="15" height="16" viewBox="0 0 15 16" fill="none" xmlns="http://www.w3.org/2000/svg">
<mask id="mask0_1_1596" style="mask-type:alpha" maskUnits="userSpaceOnUse" x="0" y="0" width="15" height="16">
<g clip-path="url(#clip0_1_1596)">
<path d="M5.44922 1.08594V14.3281H4.6875V6.94531C4.6875 6.62305 4.42383 6.35938 4.10156 6.35938H1.17188C0.849609 6.35938 0.585938 6.62305 0.585938 6.94531V14.3281C0.263672 14.3281 0 14.5918 0 14.9141C0 15.2363 0.263672 15.5 0.585938 15.5C0.785156 15.5 14.2119 15.5 14.4141 15.5C14.7363 15.5 15 15.2363 15 14.9141C15 14.5918 14.7363 14.3281 14.4141 14.3281V9.875C14.4141 9.55273 14.1504 9.28906 13.8281 9.28906H10.8984C10.5762 9.28906 10.3125 9.55273 10.3125 9.875V14.3281H9.55078V1.08594C9.55078 0.763672 9.28711 0.5 8.96484 0.5H6.03516C5.71289 0.5 5.44922 0.763672 5.44922 1.08594ZM1.75781 14.3281V7.53125H3.51562V14.3281H1.75781ZM11.4844 10.4609H13.2422V14.3281H11.4844V10.4609ZM8.37891 1.67188V14.3281H6.62109V1.67188H8.37891Z" fill="black"/>
</g>
</mask>
<g mask="url(#mask0_1_1596)">
<rect y="0.5" width="15" height="15" fill="#9197B1"/>
</g>
<defs>
<clipPath id="clip0_1_1596">
<rect width="15" height="15" fill="white" transform="translate(0 0.5)"/>
</clipPath>
</defs>
</svg>
