<svg width="14" height="14" viewBox="0 0 14 14" fill="none" xmlns="http://www.w3.org/2000/svg">
<mask id="mask0_1_1178" style="mask-type:alpha" maskUnits="userSpaceOnUse" x="0" y="0" width="14" height="14">
<g clip-path="url(#clip0_1_1178)">
<path d="M13.8398 4.5953L9.40471 0.160146C9.19112 -0.0533818 8.84484 -0.0533818 8.63129 0.160146C8.41773 0.373728 8.41773 0.720009 8.63129 0.933563L8.79899 1.10126L5.06101 4.83921L2.33099 5.46921C2.13728 5.51394 1.98306 5.66023 1.92827 5.85134C1.87347 6.04244 1.92668 6.24823 2.06726 6.38881L4.45245 8.774L0.160166 13.0665C-0.0533887 13.28 -0.0533887 13.6263 0.160166 13.8398C0.373721 14.0534 0.720002 14.0534 0.933584 13.8398L5.22587 9.54739L7.6112 11.9327C7.75194 12.0735 7.95773 12.1265 8.14867 12.0717C8.33975 12.0169 8.48607 11.8627 8.5308 11.669L9.1608 8.93894L12.8987 5.20099L13.0664 5.36869C13.28 5.58227 13.6263 5.58222 13.8398 5.36869C14.0534 5.15517 14.0534 4.80888 13.8398 4.5953ZM7.68689 10.4616C7.64062 10.4153 3.58456 6.35927 3.53838 6.31309L5.16443 5.93783L8.06215 8.83555L7.68689 10.4616ZM8.6632 7.88979L6.11022 5.33681L9.57235 1.87468L12.1253 4.42763L8.6632 7.88979Z" fill="black"/>
</g>
</mask>
<g mask="url(#mask0_1_1178)">
<rect width="14" height="14" fill="#868BA1"/>
</g>
<defs>
<clipPath id="clip0_1_1178">
<rect width="14" height="14" fill="white"/>
</clipPath>
</defs>
</svg>
