<svg width="11" height="12" viewBox="0 0 11 12" fill="none" xmlns="http://www.w3.org/2000/svg">
<mask id="mask0_1_1156" style="mask-type:alpha" maskUnits="userSpaceOnUse" x="0" y="0" width="11" height="12">
<g clip-path="url(#clip0_1_1156)">
<path d="M5.50002 0.527954C2.47932 0.527954 0.0279541 2.97932 0.0279541 6.00002C0.0279541 9.02073 2.47717 11.4721 5.50002 11.4721C8.52288 11.4721 10.9721 9.02288 10.9721 6.00002C10.9721 2.97717 8.52073 0.527954 5.50002 0.527954ZM5.50002 10.7158C2.98635 10.7158 0.949634 8.60393 0.949634 6.00002C0.949634 3.39612 2.98635 1.2842 5.50002 1.2842C8.0137 1.2842 10.0504 3.39612 10.0504 6.00002C10.0504 8.60393 8.0137 10.7158 5.50002 10.7158Z" fill="black"/>
<path d="M5.92969 5.82168V3.46484C5.92969 3.22852 5.73633 3.03516 5.5 3.03516C5.26367 3.03516 5.07031 3.22852 5.07031 3.46484V6C5.07031 6.11387 5.11543 6.22344 5.19707 6.30293L6.88789 7.99375C7.05547 8.16133 7.32832 8.16133 7.4959 7.99375C7.66348 7.82617 7.66348 7.55332 7.4959 7.38574L5.92969 5.82168Z" fill="black"/>
</g>
</mask>
<g mask="url(#mask0_1_1156)">
<rect width="11" height="11" transform="translate(0 0.5)" fill="#9197B1"/>
</g>
<defs>
<clipPath id="clip0_1_1156">
<rect width="11" height="11" fill="white" transform="translate(0 0.5)"/>
</clipPath>
</defs>
</svg>
