<svg width="35" height="35" viewBox="0 0 35 35" fill="none" xmlns="http://www.w3.org/2000/svg">
<rect width="35" height="35" rx="3" fill="black" fill-opacity="0.1"/>
<mask id="mask0_1_102" style="mask-type:alpha" maskUnits="userSpaceOnUse" x="10" y="10" width="15" height="15">
<path d="M15.7422 14.3945C16.9551 14.3945 17.9395 13.4102 17.9395 12.1973C17.9395 10.9844 16.9551 10 15.7422 10C14.5293 10 13.5449 10.9844 13.5449 12.1973C13.5449 13.4102 14.5293 14.3945 15.7422 14.3945ZM15.7422 10.8789C16.4687 10.8789 17.0605 11.4707 17.0605 12.1973C17.0605 12.9238 16.4687 13.5156 15.7422 13.5156C15.0156 13.5156 14.4238 12.9238 14.4238 12.1973C14.4238 11.4707 15.0156 10.8789 15.7422 10.8789Z" fill="#8069F2"/>
<path d="M20.1367 14.3945C20.8633 14.3945 21.4551 13.8027 21.4551 13.0762C21.4551 12.3496 20.8633 11.7578 20.1367 11.7578C19.4102 11.7578 18.8184 12.3496 18.8184 13.0762C18.8184 13.8027 19.4102 14.3945 20.1367 14.3945ZM20.1367 12.6367C20.3799 12.6367 20.5762 12.833 20.5762 13.0762C20.5762 13.3193 20.3799 13.5156 20.1367 13.5156C19.8936 13.5156 19.6973 13.3193 19.6973 13.0762C19.6973 12.833 19.8936 12.6367 20.1367 12.6367Z" fill="#8069F2"/>
<path d="M23.2129 15.2734H11.7871V16.1523H12.6836C12.7715 17.2305 13.1816 18.2705 13.8613 19.1172L15.1797 20.7666C15.8271 21.5752 16.1816 22.5889 16.1816 23.623V25H18.8184V23.623C18.8184 22.5889 19.1729 21.5752 19.8203 20.7666L21.1387 19.1172C21.8184 18.2705 22.2256 17.2305 22.3135 16.1523H23.2129V15.2734ZM20.4531 18.5693L19.1348 20.2187C18.3643 21.1797 17.9395 22.3896 17.9395 23.623V24.1211H17.0605V23.623C17.0605 22.3896 16.6357 21.1797 15.8652 20.2187L14.5469 18.5693C13.9932 17.8779 13.6533 17.0312 13.5654 16.1523H21.4316C21.3467 17.0312 21.0068 17.875 20.4531 18.5693Z" fill="#9CA0AE"/>
</mask>
<g mask="url(#mask0_1_102)">
<rect x="10" y="10" width="15" height="15" fill="white"/>
</g>
</svg>
