<svg width="35" height="35" viewBox="0 0 35 35" fill="none" xmlns="http://www.w3.org/2000/svg">
<rect width="35" height="35" rx="3" fill="black" fill-opacity="0.1"/>
<mask id="mask0_1_113" style="mask-type:alpha" maskUnits="userSpaceOnUse" x="10" y="10" width="15" height="15">
<path d="M11.7871 15.2734V16.1523H12.6836C12.7715 17.2305 13.1816 18.2705 13.8613 19.1172L15.1797 20.7666C15.8271 21.5752 16.1816 22.5889 16.1816 23.623V25H18.8184V23.623C18.8184 22.5889 19.1729 21.5752 19.8203 20.7666L21.1387 19.1172C21.8184 18.2705 22.2256 17.2305 22.3135 16.1523H23.2129V15.2734H11.7871ZM20.4531 18.5693L19.1348 20.2187C18.3643 21.1797 17.9395 22.3896 17.9395 23.623V24.1211H17.0605V23.623C17.0605 22.3896 16.6357 21.1797 15.8652 20.2187L14.5469 18.5693C13.9932 17.8779 13.6533 17.0312 13.5654 16.1523H21.4316C21.3467 17.0312 21.0068 17.875 20.4531 18.5693ZM17.0312 13.2812H15.8301V12.3438H17.0312V11.1426H17.9688V12.3438H19.1699V13.2812H17.9688V14.4824H17.0312V13.2812Z" fill="black"/>
</mask>
<g mask="url(#mask0_1_113)">
<rect x="10" y="10" width="15" height="15" fill="white"/>
</g>
</svg>
