<svg width="25" height="25" viewBox="0 0 25 25" fill="none" xmlns="http://www.w3.org/2000/svg">
<rect width="25" height="25" rx="3" fill="black" fill-opacity="0.1"/>
<mask id="mask0_1_735" style="mask-type:alpha" maskUnits="userSpaceOnUse" x="5" y="5" width="15" height="15">
<g clip-path="url(#clip0_1_735)">
<path d="M19.7973 6.11545C19.6374 5.98326 19.4161 5.95559 19.2255 6.03859L5.53641 12.0086C5.18904 12.1592 4.98 12.5035 5.00152 12.8816C5.02303 13.2597 5.27204 13.5764 5.63479 13.684L9.01018 14.7046C9.30222 14.7937 9.61271 14.6277 9.69879 14.3357C9.78486 14.0436 9.62193 13.7331 9.32989 13.6471L6.50477 12.7925L17.1997 8.129L10.8915 14.4248C10.8885 14.4279 10.8854 14.434 10.8793 14.4371C10.87 14.4463 10.8639 14.4525 10.8547 14.4617C10.8485 14.4679 10.8424 14.4771 10.8393 14.4832C10.8362 14.4894 10.8301 14.4955 10.827 14.5017C10.8239 14.5047 10.8239 14.5078 10.8239 14.5078C10.8178 14.514 10.8147 14.5232 10.8085 14.5293C10.8024 14.5386 10.7993 14.5478 10.7932 14.557C10.7901 14.5632 10.787 14.5724 10.784 14.5785C10.7778 14.5877 10.7747 14.6 10.7686 14.6093C10.7655 14.6154 10.7624 14.6216 10.7624 14.6277C10.7594 14.64 10.7532 14.6492 10.7501 14.6615C10.7471 14.6677 10.7471 14.6738 10.744 14.68C10.7409 14.6923 10.7378 14.7046 10.7348 14.7169C10.7348 14.723 10.7317 14.7292 10.7317 14.7353C10.7286 14.7476 10.7286 14.7599 10.7286 14.7722C10.7286 14.7783 10.7286 14.7876 10.7286 14.7937C10.7286 14.806 10.7286 14.8183 10.7286 14.8275C10.7286 14.8337 10.7286 14.8368 10.7286 14.8429L10.8946 17.9939C10.9131 18.3382 11.1344 18.6364 11.4603 18.7532C11.5556 18.787 11.6509 18.8024 11.7462 18.8024C11.9829 18.8024 12.2134 18.704 12.3794 18.5196L13.6429 17.1239L16.1329 18.8485C16.2866 18.953 16.4619 19.0083 16.6432 19.0083C16.7539 19.0083 16.8677 18.9868 16.9753 18.9438C17.255 18.8331 17.4579 18.5903 17.5194 18.2982L19.9879 6.65957C20.0309 6.45668 19.9572 6.24764 19.7973 6.11545ZM11.9706 17.3299L11.8968 15.9127L12.7299 16.4906L11.9706 17.3299ZM16.5049 17.7572L12.1427 14.7353L18.4846 8.40567L16.5049 17.7572Z" fill="black"/>
</g>
</mask>
<g mask="url(#mask0_1_735)">
<rect x="5" y="5" width="15" height="15" fill="white"/>
</g>
<defs>
<clipPath id="clip0_1_735">
<rect width="15" height="15" fill="white" transform="translate(5 5)"/>
</clipPath>
</defs>
</svg>
